Idiqlat-Light.ufo
<glyph name="exclam" format="2">
  <advance width="391"/>
  <unicode hex="0021"/>
  <outline>
    <contour>
      <point x="162" y="282" type="line"/>
      <point x="228" y="282" type="line"/>
      <point x="290" y="830" type="line" smooth="yes"/>
      <point x="301" y="922"/>
      <point x="260" y="980"/>
      <point x="194" y="980" type="curve" smooth="yes"/>
      <point x="129" y="980"/>
      <point x="89" y="922"/>
      <point x="99" y="830" type="curve" smooth="yes"/>
    </contour>
    <contour>
      <point x="194" y="-14" type="curve" smooth="yes"/>
      <point x="256" y="-14"/>
      <point x="303" y="30"/>
      <point x="303" y="90" type="curve" smooth="yes"/>
      <point x="303" y="150"/>
      <point x="256" y="195"/>
      <point x="194" y="195" type="curve" smooth="yes"/>
      <point x="135" y="195"/>
      <point x="88" y="150"/>
      <point x="88" y="90" type="curve" smooth="yes"/>
      <point x="88" y="30"/>
      <point x="135" y="-14"/>
    </contour>
  </outline>
</glyph>
<glyph name="comma" format="2">
  <advance width="360"/>
  <unicode hex="002C"/>
  <note>
comma
</note>
  <outline>
    <contour>
      <point x="62" y="-268" type="line"/>
      <point x="209" y="-210"/>
      <point x="294" y="-84"/>
      <point x="294" y="42" type="curve" smooth="yes"/>
      <point x="294" y="151"/>
      <point x="235" y="195"/>
      <point x="178" y="195" type="curve" smooth="yes"/>
      <point x="117" y="195"/>
      <point x="75" y="151"/>
      <point x="75" y="102" type="curve" smooth="yes"/>
      <point x="75" y="11"/>
      <point x="170" y="16"/>
      <point x="170" y="-67" type="curve" smooth="yes"/>
      <point x="170" y="-130"/>
      <point x="129" y="-180"/>
      <point x="38" y="-219" type="curve"/>
    </contour>
  </outline>
</glyph>
<glyph name="three" format="2">
  <advance width="715"/>
  <unicode hex="0033"/>
  <note>
three
</note>
  <outline>
    <contour>
      <point x="358" y="431" type="line"/>
      <point x="487" y="469"/>
      <point x="578" y="544"/>
      <point x="578" y="652" type="curve" smooth="yes"/>
      <point x="578" y="758"/>
      <point x="489" y="836"/>
      <point x="351" y="836" type="curve" smooth="yes"/>
      <point x="233" y="836"/>
      <point x="130" y="773"/>
      <point x="84" y="672" type="curve"/>
      <point x="132" y="638" type="line"/>
      <point x="172" y="691"/>
      <point x="230" y="720"/>
      <point x="294" y="720" type="curve" smooth="yes"/>
      <point x="373" y="720"/>
      <point x="425" y="679"/>
      <point x="425" y="609" type="curve" smooth="yes"/>
      <point x="425" y="522"/>
      <point x="351" y="464"/>
      <point x="222" y="448" type="curve"/>
      <point x="231" y="376" type="line"/>
      <point x="252" y="380"/>
      <point x="277" y="381"/>
      <point x="303" y="381" type="curve" smooth="yes"/>
      <point x="411" y="381"/>
      <point x="478" y="322"/>
      <point x="478" y="226" type="curve" smooth="yes"/>
      <point x="478" y="113"/>
      <point x="386" y="42"/>
      <point x="268" y="66" type="curve"/>
      <point x="325" y="44" type="line"/>
      <point x="233" y="125" type="line" smooth="yes"/>
      <point x="198" y="155"/>
      <point x="179" y="164"/>
      <point x="146" y="164" type="curve" smooth="yes"/>
      <point x="110" y="164"/>
      <point x="85" y="136"/>
      <point x="85" y="101" type="curve" smooth="yes"/>
      <point x="85" y="34"/>
      <point x="171" y="-12"/>
      <point x="293" y="-12" type="curve" smooth="yes"/>
      <point x="491" y="-12"/>
      <point x="631" y="111"/>
      <point x="631" y="248" type="curve" smooth="yes"/>
      <point x="631" y="372"/>
      <point x="535" y="450"/>
      <point x="373" y="455" type="curve"/>
    </contour>
  </outline>
</glyph>
<glyph name="five" format="2">
  <advance width="820"/>
  <unicode hex="0035"/>
  <outline>
    <contour>
      <point x="334" y="-1" type="curve" smooth="yes"/>
      <point x="441" y="-1"/>
      <point x="530" y="30"/>
      <point x="599" y="92" type="curve" smooth="yes"/>
      <point x="672" y="157"/>
      <point x="707" y="230"/>
      <point x="703" y="313" type="curve" smooth="yes"/>
      <point x="700" y="398" type="line"/>
      <point x="687" y="446" type="line"/>
      <point x="663" y="493" type="line"/>
      <point x="629" y="541" type="line"/>
      <point x="590" y="588"/>
      <point x="539" y="620"/>
      <point x="477" y="636" type="curve"/>
      <point x="454" y="644"/>
      <point x="435" y="649"/>
      <point x="421" y="652" type="curve" smooth="yes"/>
      <point x="304" y="678" type="line"/>
      <point x="364" y="788" type="line"/>
      <point x="635" y="788" type="line"/>
      <point x="656" y="792"/>
      <point x="667" y="796"/>
      <point x="668" y="801" type="curve"/>
      <point x="722" y="918" type="line"/>
      <point x="705" y="925" type="line"/>
      <point x="672" y="898" type="line"/>
      <point x="648" y="892" type="line"/>
      <point x="354" y="888" type="line"/>
      <point x="202" y="578" type="line"/>
      <point x="202" y="568"/>
      <point x="205" y="563"/>
      <point x="211" y="563" type="curve" smooth="yes"/>
      <point x="263" y="563"/>
      <point x="308" y="558"/>
      <point x="345" y="548" type="curve" smooth="yes"/>
      <point x="376" y="539"/>
      <point x="398" y="532"/>
      <point x="412" y="527" type="curve" smooth="yes"/>
      <point x="543" y="482"/>
      <point x="609" y="401"/>
      <point x="609" y="285" type="curve" smooth="yes"/>
      <point x="609" y="208"/>
      <point x="587" y="148"/>
      <point x="544" y="105" type="curve" smooth="yes"/>
      <point x="506" y="68"/>
      <point x="461" y="49"/>
      <point x="410" y="49" type="curve"/>
      <point x="375" y="59" type="line"/>
      <point x="344" y="74"/>
      <point x="322" y="86"/>
      <point x="307" y="95" type="curve" smooth="yes"/>
      <point x="269" y="118"/>
      <point x="237" y="129"/>
      <point x="210" y="129" type="curve" smooth="yes"/>
      <point x="175" y="129"/>
      <point x="158" y="113"/>
      <point x="158" y="81" type="curve" smooth="yes"/>
      <point x="158" y="54"/>
      <point x="172" y="35"/>
      <point x="200" y="25" type="curve"/>
      <point x="235" y="8"/>
      <point x="279" y="-1"/>
    </contour>
  </outline>
</glyph>
<glyph name="six" format="2">
  <advance width="847"/>
  <unicode hex="0036"/>
  <outline>
    <contour>
      <point x="451" y="1" type="curve" smooth="yes"/>
      <point x="561" y="1"/>
      <point x="642" y="39"/>
      <point x="693" y="116" type="curve" smooth="yes"/>
      <point x="708" y="139"/>
      <point x="722" y="169"/>
      <point x="734" y="205" type="curve"/>
      <point x="745" y="229"/>
      <point x="750" y="262"/>
      <point x="750" y="303" type="curve" smooth="yes"/>
      <point x="750" y="386"/>
      <point x="727" y="452"/>
      <point x="682" y="503" type="curve" smooth="yes"/>
      <point x="634" y="556"/>
      <point x="569" y="582"/>
      <point x="488" y="582" type="curve" smooth="yes"/>
      <point x="449" y="582"/>
      <point x="419" y="578"/>
      <point x="399" y="569" type="curve" smooth="yes"/>
      <point x="305" y="528" type="line"/>
      <point x="338" y="631"/>
      <point x="380" y="707"/>
      <point x="431" y="758" type="curve" smooth="yes"/>
      <point x="505" y="833"/>
      <point x="602" y="881"/>
      <point x="722" y="903" type="curve"/>
      <point x="719" y="918" type="line"/>
      <point x="553" y="918"/>
      <point x="415" y="865"/>
      <point x="305" y="760" type="curve" smooth="yes"/>
      <point x="198" y="659"/>
      <point x="145" y="539"/>
      <point x="145" y="402" type="curve" smooth="yes"/>
      <point x="145" y="269"/>
      <point x="174" y="169"/>
      <point x="232" y="103" type="curve" smooth="yes"/>
      <point x="292" y="35"/>
      <point x="365" y="1"/>
    </contour>
    <contour>
      <point x="472" y="34" type="curve" smooth="yes"/>
      <point x="360" y="34"/>
      <point x="277" y="135"/>
      <point x="277" y="355" type="curve" smooth="yes"/>
      <point x="277" y="383" type="line"/>
      <point x="280" y="441" type="line"/>
      <point x="283" y="449"/>
      <point x="287" y="459"/>
      <point x="293" y="470" type="curve" smooth="yes"/>
      <point x="303" y="485" type="line"/>
      <point x="322" y="501"/>
      <point x="340" y="510"/>
      <point x="357" y="513" type="curve"/>
      <point x="370" y="520"/>
      <point x="395" y="524"/>
      <point x="431" y="524" type="curve" smooth="yes"/>
      <point x="560" y="524"/>
      <point x="624" y="434"/>
      <point x="624" y="255" type="curve" smooth="yes"/>
      <point x="624" y="219"/>
      <point x="620" y="187"/>
      <point x="612" y="158" type="curve" smooth="yes"/>
      <point x="589" y="75"/>
      <point x="542" y="34"/>
    </contour>
  </outline>
</glyph>
<glyph name="nine" format="2">
  <advance width="827"/>
  <unicode hex="0039"/>
  <outline>
    <contour>
      <point x="151" y="4" type="line"/>
      <point x="232" y="4"/>
      <point x="307" y="20"/>
      <point x="376" y="51" type="curve" smooth="yes"/>
      <point x="449" y="84"/>
      <point x="512" y="129"/>
      <point x="563" y="186" type="curve" smooth="yes"/>
      <point x="660" y="294"/>
      <point x="708" y="420"/>
      <point x="708" y="565" type="curve" smooth="yes"/>
      <point x="708" y="662"/>
      <point x="682" y="745"/>
      <point x="630" y="814" type="curve" smooth="yes"/>
      <point x="573" y="891"/>
      <point x="497" y="929"/>
      <point x="403" y="929" type="curve" smooth="yes"/>
      <point x="312" y="929"/>
      <point x="240" y="899"/>
      <point x="188" y="840" type="curve" smooth="yes"/>
      <point x="139" y="784"/>
      <point x="114" y="710"/>
      <point x="114" y="617" type="curve" smooth="yes"/>
      <point x="114" y="550"/>
      <point x="132" y="493"/>
      <point x="168" y="448" type="curve" smooth="yes"/>
      <point x="217" y="386"/>
      <point x="281" y="355"/>
      <point x="361" y="355" type="curve"/>
      <point x="439" y="363" type="line"/>
      <point x="485" y="379" type="line" smooth="yes"/>
      <point x="504" y="387"/>
      <point x="534" y="401"/>
      <point x="574" y="420" type="curve"/>
      <point x="524" y="305"/>
      <point x="475" y="223"/>
      <point x="426" y="175" type="curve" smooth="yes"/>
      <point x="354" y="104"/>
      <point x="262" y="59"/>
      <point x="151" y="38" type="curve"/>
    </contour>
    <contour>
      <point x="416" y="409" type="curve" smooth="yes"/>
      <point x="390" y="409"/>
      <point x="367" y="413"/>
      <point x="348" y="422" type="curve"/>
      <point x="328" y="435"/>
      <point x="310" y="450"/>
      <point x="294" y="467" type="curve"/>
      <point x="259" y="515"/>
      <point x="242" y="581"/>
      <point x="242" y="665" type="curve" smooth="yes"/>
      <point x="242" y="730"/>
      <point x="251" y="784"/>
      <point x="270" y="827" type="curve"/>
      <point x="301" y="875"/>
      <point x="340" y="899"/>
      <point x="387" y="899" type="curve" smooth="yes"/>
      <point x="469" y="899"/>
      <point x="524" y="852"/>
      <point x="552" y="758" type="curve" smooth="yes"/>
      <point x="571" y="695"/>
      <point x="579" y="629"/>
      <point x="576" y="559" type="curve" smooth="yes"/>
      <point x="574" y="509" type="line" smooth="yes"/>
      <point x="571" y="482"/>
      <point x="562" y="464"/>
      <point x="548" y="455" type="curve"/>
      <point x="529" y="437"/>
      <point x="509" y="427"/>
      <point x="487" y="424" type="curve"/>
      <point x="463" y="414"/>
      <point x="439" y="409"/>
    </contour>
  </outline>
</glyph>
<glyph name="semicolon" format="2">
  <advance width="360"/>
  <unicode hex="003B"/>
  <outline>
    <contour>
      <point x="62" y="-268" type="line"/>
      <point x="208" y="-210"/>
      <point x="294" y="-84"/>
      <point x="294" y="42" type="curve" smooth="yes"/>
      <point x="294" y="149"/>
      <point x="235" y="193"/>
      <point x="178" y="193" type="curve" smooth="yes"/>
      <point x="117" y="193"/>
      <point x="75" y="151"/>
      <point x="75" y="100" type="curve" smooth="yes"/>
      <point x="75" y="11"/>
      <point x="170" y="16"/>
      <point x="170" y="-67" type="curve" smooth="yes"/>
      <point x="170" y="-130"/>
      <point x="129" y="-180"/>
      <point x="38" y="-219" type="curve"/>
    </contour>
    <contour>
      <point x="179" y="415" type="curve" smooth="yes"/>
      <point x="241" y="415"/>
      <point x="287" y="458"/>
      <point x="287" y="518" type="curve" smooth="yes"/>
      <point x="287" y="578"/>
      <point x="241" y="623"/>
      <point x="179" y="623" type="curve" smooth="yes"/>
      <point x="119" y="623"/>
      <point x="73" y="578"/>
      <point x="73" y="518" type="curve" smooth="yes"/>
      <point x="73" y="458"/>
      <point x="119" y="415"/>
    </contour>
  </outline>
</glyph>
<glyph name="less" format="2">
  <advance width="1024"/>
  <unicode hex="003C"/>
  <outline>
    <contour>
      <point x="794" y="2" type="curve" smooth="yes"/>
      <point x="813" y="2"/>
      <point x="823" y="11"/>
      <point x="823" y="30" type="curve" smooth="yes"/>
      <point x="823" y="41"/>
      <point x="815" y="51"/>
      <point x="800" y="60" type="curve" smooth="yes"/>
      <point x="271" y="354" type="line"/>
      <point x="800" y="648" type="line" smooth="yes"/>
      <point x="816" y="656"/>
      <point x="824" y="666"/>
      <point x="824" y="677" type="curve" smooth="yes"/>
      <point x="824" y="696"/>
      <point x="814" y="706"/>
      <point x="795" y="706" type="curve" smooth="yes"/>
      <point x="790" y="706"/>
      <point x="782" y="703"/>
      <point x="773" y="698" type="curve" smooth="yes"/>
      <point x="155" y="354" type="line"/>
      <point x="772" y="10" type="line" smooth="yes"/>
      <point x="782" y="5"/>
      <point x="789" y="2"/>
    </contour>
  </outline>
</glyph>
<glyph name="equal" format="2">
  <advance width="1111"/>
  <unicode hex="003D"/>
  <outline>
    <contour>
      <point x="927" y="327" type="line" smooth="yes"/>
      <point x="951" y="327"/>
      <point x="963" y="336"/>
      <point x="963" y="355" type="curve" smooth="yes"/>
      <point x="963" y="375"/>
      <point x="951" y="385"/>
      <point x="927" y="385" type="curve" smooth="yes"/>
      <point x="333" y="385" type="line" smooth="yes"/>
      <point x="309" y="385"/>
      <point x="297" y="376"/>
      <point x="297" y="357" type="curve" smooth="yes"/>
      <point x="297" y="338"/>
      <point x="309" y="328"/>
      <point x="333" y="328" type="curve" smooth="yes"/>
    </contour>
    <contour>
      <point x="927" y="122" type="line" smooth="yes"/>
      <point x="951" y="122"/>
      <point x="963" y="132"/>
      <point x="963" y="151" type="curve" smooth="yes"/>
      <point x="963" y="170"/>
      <point x="951" y="179"/>
      <point x="927" y="179" type="curve" smooth="yes"/>
      <point x="333" y="180" type="line" smooth="yes"/>
      <point x="309" y="180"/>
      <point x="297" y="170"/>
      <point x="297" y="151" type="curve" smooth="yes"/>
      <point x="297" y="132"/>
      <point x="309" y="123"/>
      <point x="333" y="123" type="curve" smooth="yes"/>
    </contour>
  </outline>
</glyph>
<glyph name="question" format="2">
  <advance width="516"/>
  <unicode hex="003F"/>
  <note>
question
</note>
  <outline>
    <contour>
      <point x="150" y="282" type="curve"/>
      <point x="219" y="282" type="line"/>
      <point x="214" y="307"/>
      <point x="212" y="326"/>
      <point x="212" y="344" type="curve" smooth="yes"/>
      <point x="212" y="476"/>
      <point x="456" y="486"/>
      <point x="456" y="680" type="curve" smooth="yes"/>
      <point x="456" y="853"/>
      <point x="313" y="980"/>
      <point x="128" y="980" type="curve" smooth="yes"/>
      <point x="52" y="980"/>
      <point x="14" y="946"/>
      <point x="14" y="900" type="curve" smooth="yes"/>
      <point x="14" y="858"/>
      <point x="50" y="824"/>
      <point x="109" y="824" type="curve" smooth="yes"/>
      <point x="154" y="824"/>
      <point x="193" y="847"/>
      <point x="240" y="847" type="curve" smooth="yes"/>
      <point x="305" y="847"/>
      <point x="347" y="806"/>
      <point x="347" y="749" type="curve" smooth="yes"/>
      <point x="347" y="617"/>
      <point x="114" y="562"/>
      <point x="114" y="413" type="curve" smooth="yes"/>
      <point x="114" y="371"/>
      <point x="123" y="333"/>
    </contour>
    <contour>
      <point x="184" y="-14" type="curve" smooth="yes"/>
      <point x="246" y="-14"/>
      <point x="294" y="30"/>
      <point x="294" y="90" type="curve" smooth="yes"/>
      <point x="294" y="150"/>
      <point x="246" y="195"/>
      <point x="184" y="195" type="curve" smooth="yes"/>
      <point x="126" y="195"/>
      <point x="77" y="150"/>
      <point x="77" y="90" type="curve" smooth="yes"/>
      <point x="77" y="30"/>
      <point x="125" y="-14"/>
    </contour>
  </outline>
</glyph>
<glyph name="exclamdown" format="2">
  <advance width="391"/>
  <unicode hex="00A1"/>
  <note>
exclamdown
</note>
  <outline>
    <contour>
      <point x="162" y="323" type="line"/>
      <point x="99" y="-170" type="line" smooth="yes"/>
      <point x="87" y="-261"/>
      <point x="129" y="-319"/>
      <point x="194" y="-319" type="curve" smooth="yes"/>
      <point x="260" y="-319"/>
      <point x="302" y="-261"/>
      <point x="290" y="-170" type="curve" smooth="yes"/>
      <point x="228" y="323" type="line"/>
    </contour>
    <contour>
      <point x="194" y="620" type="curve" smooth="yes"/>
      <point x="135" y="620"/>
      <point x="88" y="575"/>
      <point x="88" y="515" type="curve" smooth="yes"/>
      <point x="88" y="456"/>
      <point x="135" y="411"/>
      <point x="194" y="411" type="curve" smooth="yes"/>
      <point x="256" y="411"/>
      <point x="303" y="456"/>
      <point x="303" y="515" type="curve" smooth="yes"/>
      <point x="303" y="575"/>
      <point x="256" y="620"/>
    </contour>
  </outline>
</glyph>
<glyph name="currency" format="2">
  <advance width="757"/>
  <unicode hex="00A4"/>
  <note>
currency
</note>
  <outline>
    <contour>
      <point x="379" y="146" type="curve" smooth="yes"/>
      <point x="549" y="146"/>
      <point x="687" y="287"/>
      <point x="687" y="462" type="curve" smooth="yes"/>
      <point x="687" y="638"/>
      <point x="549" y="778"/>
      <point x="379" y="778" type="curve" smooth="yes"/>
      <point x="209" y="778"/>
      <point x="71" y="638"/>
      <point x="71" y="462" type="curve" smooth="yes"/>
      <point x="71" y="287"/>
      <point x="209" y="146"/>
    </contour>
    <contour>
      <point x="83" y="101" type="line"/>
      <point x="235" y="255" type="line"/>
      <point x="179" y="317" type="line"/>
      <point x="27" y="160" type="line"/>
    </contour>
    <contour>
      <point x="670" y="103" type="line"/>
      <point x="728" y="160" type="line"/>
      <point x="577" y="317" type="line"/>
      <point x="519" y="257" type="line"/>
    </contour>
    <contour>
      <point x="378" y="214" type="curve" smooth="yes"/>
      <point x="287" y="214"/>
      <point x="216" y="322"/>
      <point x="216" y="460" type="curve" smooth="yes"/>
      <point x="216" y="599"/>
      <point x="288" y="708"/>
      <point x="378" y="708" type="curve" smooth="yes"/>
      <point x="467" y="707"/>
      <point x="538" y="599"/>
      <point x="538" y="460" type="curve" smooth="yes"/>
      <point x="538" y="322"/>
      <point x="467" y="214"/>
    </contour>
    <contour>
      <point x="165" y="621" type="line"/>
      <point x="224" y="680" type="line"/>
      <point x="83" y="822" type="line"/>
      <point x="27" y="763" type="line"/>
    </contour>
    <contour>
      <point x="590" y="619" type="line"/>
      <point x="729" y="762" type="line"/>
      <point x="668" y="824" type="line"/>
      <point x="528" y="680" type="line"/>
    </contour>
  </outline>
</glyph>
<glyph name="tildecomb" format="2">
  <unicode hex="0303"/>
  <anchor x="255" y="15" name="_above"/>
  <anchor x="270" y="-15" name="_above_1"/>
  <anchor x="240" y="15" name="_above_2"/>
  <anchor x="225" y="285" name="above"/>
  <outline>
    <contour>
      <point x="67" y="-4" type="curve" smooth="yes"/>
      <point x="68" y="-4"/>
      <point x="69" y="-3"/>
      <point x="70" y="0" type="curve" smooth="yes"/>
      <point x="91" y="63"/>
      <point x="121" y="94"/>
      <point x="158" y="94" type="curve" smooth="yes"/>
      <point x="167" y="94"/>
      <point x="176" y="92"/>
      <point x="187" y="89" type="curve" smooth="yes"/>
      <point x="189" y="88"/>
      <point x="207" y="72"/>
      <point x="242" y="41" type="curve" smooth="yes"/>
      <point x="273" y="14"/>
      <point x="306" y="0"/>
      <point x="342" y="0" type="curve" smooth="yes"/>
      <point x="380" y="0"/>
      <point x="406" y="12"/>
      <point x="420" y="36" type="curve"/>
      <point x="435" y="89" type="line" smooth="yes"/>
      <point x="440" y="105"/>
      <point x="433" y="178"/>
      <point x="422" y="178" type="curve" smooth="yes"/>
      <point x="418" y="178"/>
      <point x="414" y="167"/>
      <point x="410" y="144" type="curve" smooth="yes"/>
      <point x="404" y="112"/>
      <point x="379" y="96"/>
      <point x="334" y="96" type="curve" smooth="yes"/>
      <point x="313" y="96"/>
      <point x="288" y="108"/>
      <point x="259" y="132" type="curve" smooth="yes"/>
      <point x="227" y="159"/>
      <point x="196" y="175"/>
      <point x="166" y="181" type="curve" smooth="yes"/>
      <point x="161" y="182"/>
      <point x="157" y="183"/>
      <point x="152" y="183" type="curve" smooth="yes"/>
      <point x="96" y="183"/>
      <point x="47" y="119"/>
      <point x="47" y="51" type="curve" smooth="yes"/>
      <point x="47" y="34"/>
      <point x="59" y="-4"/>
    </contour>
  </outline>
</glyph>
<glyph name="dieresiscomb" format="2">
  <unicode hex="0308"/>
  <anchor x="240" y="0" name="_m.U0656"/>
  <anchor x="270" y="60" name="_t.U0656"/>
  <anchor x="270" y="45" name="_t.U0656_2"/>
  <anchor x="270" y="360" name="t.U0656_2"/>
  <outline>
    <contour>
      <point x="314" y="64" type="line"/>
      <point x="472" y="64" type="line"/>
      <point x="472" y="222" type="line"/>
      <point x="314" y="222" type="line"/>
    </contour>
    <contour>
      <point x="82" y="63" type="line"/>
      <point x="240" y="63" type="line"/>
      <point x="240" y="221" type="line"/>
      <point x="82" y="221" type="line"/>
    </contour>
  </outline>
</glyph>
<glyph name="dotbelowcomb" format="2">
  <unicode hex="0323"/>
  <anchor x="150" y="-30" name="_b.U0331_2_2"/>
  <anchor x="120" y="-45" name="_below"/>
  <anchor x="120" y="-330" name="below"/>
  <outline>
    <contour>
      <point x="38" y="-179" type="line"/>
      <point x="196" y="-179" type="line"/>
      <point x="196" y="-21" type="line"/>
      <point x="38" y="-21" type="line"/>
    </contour>
  </outline>
</glyph>
<glyph name="dieresisbelowcomb" format="2">
  <unicode hex="0324"/>
  <anchor x="225" y="0" name="_b.U0331_2_2"/>
  <anchor x="195" y="-30" name="_below"/>
  <anchor x="210" y="-285" name="below"/>
  <outline>
    <contour>
      <point x="332" y="-135" type="curve" smooth="yes"/>
      <point x="368" y="-135"/>
      <point x="399" y="-104"/>
      <point x="399" y="-68" type="curve" smooth="yes"/>
      <point x="399" y="-31"/>
      <point x="368" y="0"/>
      <point x="332" y="0" type="curve" smooth="yes"/>
      <point x="295" y="0"/>
      <point x="264" y="-31"/>
      <point x="264" y="-68" type="curve" smooth="yes"/>
      <point x="264" y="-105"/>
      <point x="295" y="-135"/>
    </contour>
    <contour>
      <point x="68" y="-135" type="curve" smooth="yes"/>
      <point x="104" y="-135"/>
      <point x="135" y="-104"/>
      <point x="135" y="-68" type="curve" smooth="yes"/>
      <point x="135" y="-31"/>
      <point x="104" y="0"/>
      <point x="68" y="0" type="curve" smooth="yes"/>
      <point x="31" y="0"/>
      <point x="0" y="-31"/>
      <point x="0" y="-68" type="curve" smooth="yes"/>
      <point x="0" y="-105"/>
      <point x="31" y="-135"/>
    </contour>
  </outline>
</glyph>
<glyph name="circumflexbelowcomb" format="2">
  <unicode hex="032D"/>
  <anchor x="0" y="-60" name="_b.U0331"/>
  <anchor x="0" y="-105" name="_b.U0331_2"/>
  <anchor x="285" y="-30" name="_b.U0331_2_2"/>
  <anchor x="15" y="-480" name="b.U0331"/>
  <outline>
    <contour>
      <point x="-481" y="-591" type="line"/>
      <point x="-396" y="-591" type="line"/>
      <point x="2" y="-84" type="line"/>
      <point x="162" y="-266"/>
      <point x="315" y="-435"/>
      <point x="461" y="-591" type="curve"/>
      <point x="541" y="-591" type="line"/>
      <point x="31" y="0" type="line"/>
      <point x="-19" y="0" type="line"/>
    </contour>
  </outline>
</glyph>
<glyph name="tildebelowcomb" format="2">
  <unicode hex="0330"/>
  <anchor x="240" y="-75" name="_b.U0331"/>
  <anchor x="255" y="-45" name="_b.U0331_2"/>
  <anchor x="300" y="-15" name="_b.U0331_2_2"/>
  <anchor x="240" y="-315" name="b.U0331"/>
  <outline>
    <contour>
      <point x="84" y="-217" type="curve" smooth="yes"/>
      <point x="85" y="-217"/>
      <point x="86" y="-216"/>
      <point x="87" y="-213" type="curve" smooth="yes"/>
      <point x="108" y="-150"/>
      <point x="138" y="-119"/>
      <point x="175" y="-119" type="curve" smooth="yes"/>
      <point x="184" y="-119"/>
      <point x="193" y="-121"/>
      <point x="204" y="-124" type="curve" smooth="yes"/>
      <point x="206" y="-125"/>
      <point x="224" y="-141"/>
      <point x="259" y="-172" type="curve" smooth="yes"/>
      <point x="290" y="-199"/>
      <point x="323" y="-213"/>
      <point x="359" y="-213" type="curve" smooth="yes"/>
      <point x="397" y="-213"/>
      <point x="423" y="-201"/>
      <point x="437" y="-177" type="curve"/>
      <point x="452" y="-124" type="line" smooth="yes"/>
      <point x="457" y="-109"/>
      <point x="450" y="-35"/>
      <point x="439" y="-35" type="curve" smooth="yes"/>
      <point x="435" y="-35"/>
      <point x="431" y="-46"/>
      <point x="427" y="-69" type="curve" smooth="yes"/>
      <point x="421" y="-101"/>
      <point x="396" y="-117"/>
      <point x="351" y="-117" type="curve" smooth="yes"/>
      <point x="330" y="-117"/>
      <point x="305" y="-105"/>
      <point x="276" y="-81" type="curve" smooth="yes"/>
      <point x="244" y="-54"/>
      <point x="213" y="-38"/>
      <point x="183" y="-32" type="curve" smooth="yes"/>
      <point x="178" y="-31"/>
      <point x="174" y="-30"/>
      <point x="169" y="-30" type="curve" smooth="yes"/>
      <point x="113" y="-30"/>
      <point x="64" y="-94"/>
      <point x="64" y="-162" type="curve" smooth="yes"/>
      <point x="64" y="-179"/>
      <point x="76" y="-217"/>
    </contour>
  </outline>
</glyph>
<glyph name="comma-ar" format="2">
  <advance width="446"/>
  <unicode hex="060C"/>
  <outline>
    <contour>
      <point x="200" y="-49" type="curve" smooth="yes"/>
      <point x="259" y="-49"/>
      <point x="306" y="-10"/>
      <point x="306" y="47" type="curve" smooth="yes"/>
      <point x="306" y="76"/>
      <point x="298" y="101"/>
      <point x="283" y="122" type="curve" smooth="yes"/>
      <point x="266" y="145"/>
      <point x="243" y="156"/>
      <point x="214" y="156" type="curve"/>
      <point x="209" y="175"/>
      <point x="207" y="193"/>
      <point x="207" y="210" type="curve" smooth="yes"/>
      <point x="207" y="240"/>
      <point x="216" y="276"/>
      <point x="234" y="318" type="curve" smooth="yes"/>
      <point x="237" y="324"/>
      <point x="245" y="334"/>
      <point x="259" y="349" type="curve" smooth="yes"/>
      <point x="272" y="363"/>
      <point x="279" y="372"/>
      <point x="279" y="376" type="curve" smooth="yes"/>
      <point x="279" y="389"/>
      <point x="271" y="395"/>
      <point x="255" y="394" type="curve"/>
      <point x="148" y="323"/>
      <point x="95" y="211"/>
      <point x="95" y="60" type="curve" smooth="yes"/>
      <point x="95" y="3"/>
      <point x="143" y="-49"/>
    </contour>
  </outline>
</glyph>
<glyph name="question-ar" format="2">
  <advance width="760"/>
  <unicode hex="061F"/>
  <outline>
    <contour>
      <point x="393" y="217" type="line"/>
      <point x="471" y="217" type="line"/>
      <point x="471" y="236"/>
      <point x="467" y="260"/>
      <point x="458" y="291" type="curve" smooth="yes"/>
      <point x="432" y="371" type="line"/>
      <point x="412" y="416" type="line"/>
      <point x="409" y="421"/>
      <point x="407" y="425"/>
      <point x="406" y="429" type="curve"/>
      <point x="361" y="525" type="line" smooth="yes"/>
      <point x="345" y="560"/>
      <point x="332" y="597"/>
      <point x="321" y="635" type="curve" smooth="yes"/>
      <point x="320" y="638"/>
      <point x="318" y="645"/>
      <point x="316" y="657" type="curve" smooth="yes"/>
      <point x="312" y="673" type="line" smooth="yes"/>
      <point x="308" y="693"/>
      <point x="306" y="712"/>
      <point x="306" y="731" type="curve" smooth="yes"/>
      <point x="306" y="820"/>
      <point x="349" y="874"/>
      <point x="436" y="893" type="curve"/>
      <point x="475" y="888"/>
      <point x="496" y="884"/>
      <point x="501" y="880" type="curve" smooth="yes"/>
      <point x="530" y="856"/>
      <point x="545" y="840"/>
      <point x="545" y="832" type="curve" smooth="yes"/>
      <point x="545" y="824"/>
      <point x="543" y="815"/>
      <point x="540" y="804" type="curve"/>
      <point x="526" y="783"/>
      <point x="519" y="762"/>
      <point x="519" y="741" type="curve" smooth="yes"/>
      <point x="519" y="709"/>
      <point x="540" y="687"/>
      <point x="581" y="676" type="curve"/>
      <point x="635" y="676"/>
      <point x="662" y="706"/>
      <point x="662" y="765" type="curve" smooth="yes"/>
      <point x="662" y="838"/>
      <point x="635" y="893"/>
      <point x="582" y="930" type="curve" smooth="yes"/>
      <point x="533" y="965"/>
      <point x="480" y="982"/>
      <point x="423" y="982" type="curve" smooth="yes"/>
      <point x="399" y="982"/>
      <point x="378" y="980"/>
      <point x="359" y="975" type="curve" smooth="yes"/>
      <point x="310" y="962"/>
      <point x="272" y="945"/>
      <point x="246" y="924" type="curve" smooth="yes"/>
      <point x="207" y="893"/>
      <point x="183" y="858"/>
      <point x="172" y="819" type="curve"/>
      <point x="163" y="798"/>
      <point x="159" y="770"/>
      <point x="159" y="735" type="curve" smooth="yes"/>
      <point x="159" y="718"/>
      <point x="163" y="698"/>
      <point x="170" y="677" type="curve" smooth="yes"/>
      <point x="191" y="616"/>
      <point x="224" y="558"/>
      <point x="269" y="505" type="curve" smooth="yes"/>
      <point x="294" y="475"/>
      <point x="313" y="450"/>
      <point x="324" y="429" type="curve" smooth="yes"/>
      <point x="354" y="377"/>
      <point x="373" y="329"/>
      <point x="382" y="284" type="curve" smooth="yes"/>
    </contour>
    <contour>
      <point x="436" y="-2" type="curve" smooth="yes"/>
      <point x="472" y="-2"/>
      <point x="506" y="29"/>
      <point x="506" y="65" type="curve" smooth="yes"/>
      <point x="506" y="86"/>
      <point x="500" y="104"/>
      <point x="488" y="119" type="curve"/>
      <point x="469" y="131"/>
      <point x="452" y="137"/>
      <point x="436" y="137" type="curve" smooth="yes"/>
      <point x="389" y="137"/>
      <point x="365" y="114"/>
      <point x="365" y="67" type="curve" smooth="yes"/>
      <point x="365" y="43"/>
      <point x="372" y="27"/>
      <point x="386" y="18" type="curve"/>
      <point x="399" y="5"/>
      <point x="416" y="-2"/>
    </contour>
  </outline>
</glyph>
<glyph name="kashida-ar" format="2">
  <advance width="360"/>
  <unicode hex="0640"/>
  <anchor x="120" y="300" name="above"/>
  <anchor x="135" y="315" name="aboveleft"/>
  <anchor x="135" y="-120" name="b.U0325_3"/>
  <anchor x="150" y="-135" name="b.U0740"/>
  <anchor x="135" y="-120" name="below"/>
  <outline>
    <contour>
      <point x="0" y="0" type="line"/>
      <point x="360" y="0" type="line"/>
      <point x="360" y="158" type="line"/>
      <point x="0" y="158" type="line"/>
    </contour>
  </outline>
</glyph>
<glyph name="alaph-syriac" format="2">
  <advance width="630"/>
  <unicode hex="0710"/>
  <anchor x="259" y="975" name="above"/>
  <anchor x="50" y="975" name="aboveleft"/>
  <anchor x="259" y="-150" name="below"/>
  <anchor x="50" y="-150" name="belowleft"/>
  <outline>
    <contour>
      <point x="518" y="0" type="line" smooth="yes"/>
      <point x="553" y="0"/>
      <point x="580" y="60"/>
      <point x="580" y="117" type="curve" smooth="yes"/>
      <point x="580" y="130"/>
      <point x="580" y="145"/>
      <point x="574" y="145" type="curve" smooth="yes"/>
      <point x="180" y="145" type="line"/>
      <point x="238" y="104" type="line"/>
      <point x="358" y="299"/>
      <point x="388" y="455"/>
      <point x="388" y="650" type="curve" smooth="yes"/>
      <point x="388" y="804"/>
      <point x="327" y="867"/>
      <point x="259" y="867" type="curve" smooth="yes"/>
      <point x="185" y="867"/>
      <point x="132" y="804"/>
      <point x="132" y="737" type="curve" smooth="yes"/>
      <point x="132" y="596"/>
      <point x="330" y="707"/>
      <point x="330" y="538" type="curve" smooth="yes"/>
      <point x="330" y="349"/>
      <point x="96" y="133"/>
      <point x="84" y="125" type="curve"/>
      <point x="81" y="120"/>
      <point x="80" y="111"/>
      <point x="80" y="99" type="curve" smooth="yes"/>
      <point x="80" y="48"/>
      <point x="104" y="0"/>
      <point x="135" y="0" type="curve" smooth="yes"/>
    </contour>
  </outline>
</glyph>
<glyph name="alaphSuperscript-syriac" format="2">
  <unicode hex="0711"/>
  <anchor x="135" y="15" name="_above"/>
  <anchor x="255" y="0" name="_above_1"/>
  <anchor x="135" y="0" name="_t.U0656_2"/>
  <anchor x="120" y="600" name="t.U0656_2"/>
  <outline>
    <contour>
      <point x="0" y="0" type="line"/>
      <point x="285" y="0" type="line"/>
      <point x="285" y="88" type="line"/>
      <point x="138" y="88" type="line"/>
      <point x="167" y="251"/>
      <point x="181" y="346"/>
      <point x="181" y="373" type="curve" smooth="yes"/>
      <point x="181" y="400"/>
      <point x="175" y="424"/>
      <point x="163" y="447" type="curve" smooth="yes"/>
      <point x="149" y="476"/>
      <point x="130" y="490"/>
      <point x="105" y="490" type="curve" smooth="yes"/>
      <point x="70" y="490"/>
      <point x="35" y="449"/>
      <point x="35" y="413" type="curve" smooth="yes"/>
      <point x="35" y="384"/>
      <point x="51" y="369"/>
      <point x="84" y="369" type="curve" smooth="yes"/>
      <point x="107" y="369"/>
      <point x="123" y="366"/>
      <point x="131" y="360" type="curve" smooth="yes"/>
      <point x="141" y="352"/>
      <point x="146" y="336"/>
      <point x="146" y="312" type="curve" smooth="yes"/>
      <point x="146" y="247"/>
      <point x="59" y="117"/>
      <point x="0" y="90" type="curve"/>
    </contour>
  </outline>
</glyph>
<glyph name="gamal-syriac" format="2">
  <advance width="1212"/>
  <unicode hex="0713"/>
  <anchor x="900" y="765" name="above"/>
  <anchor x="585" y="-150" name="b.U0325_3"/>
  <anchor x="780" y="-165" name="b.U0740"/>
  <anchor x="660" y="-165" name="below"/>
  <anchor x="825" y="810" name="m.U030a_1"/>
  <outline>
    <contour>
      <point x="1167" y="-470" type="line"/>
      <point x="1309" y="-470" type="line"/>
      <point x="1309" y="-329" type="line"/>
      <point x="1173" y="-329" type="line"/>
      <point x="583" y="879" type="line" smooth="yes"/>
      <point x="570" y="905"/>
      <point x="562" y="934"/>
      <point x="560" y="967" type="curve" smooth="yes"/>
      <point x="559" y="991"/>
      <point x="557" y="1003"/>
      <point x="555" y="1003" type="curve" smooth="yes"/>
      <point x="552" y="1003"/>
      <point x="539" y="987"/>
      <point x="517" y="954" type="curve" smooth="yes"/>
      <point x="448" y="847"/>
      <point x="413" y="789"/>
      <point x="413" y="780" type="curve" smooth="yes"/>
      <point x="413" y="769"/>
      <point x="432" y="730"/>
      <point x="469" y="662" type="curve" smooth="yes"/>
      <point x="748" y="158" type="line"/>
      <point x="213" y="158" type="line" smooth="yes"/>
      <point x="168" y="158"/>
      <point x="131" y="169"/>
      <point x="103" y="191" type="curve" smooth="yes"/>
      <point x="84" y="205"/>
      <point x="69" y="225"/>
      <point x="57" y="251" type="curve" smooth="yes"/>
      <point x="47" y="273"/>
      <point x="41" y="284"/>
      <point x="40" y="284" type="curve" smooth="yes"/>
      <point x="22" y="284"/>
      <point x="13" y="256"/>
      <point x="13" y="199" type="curve" smooth="yes"/>
      <point x="13" y="112"/>
      <point x="36" y="54"/>
      <point x="83" y="25" type="curve" smooth="yes"/>
      <point x="110" y="8"/>
      <point x="153" y="0"/>
      <point x="213" y="0" type="curve" smooth="yes"/>
      <point x="876" y="0" type="line"/>
      <point x="1167" y="-366" type="line"/>
    </contour>
  </outline>
</glyph>
<glyph name="he-syriac" format="2">
  <advance width="913"/>
  <unicode hex="0717"/>
  <anchor x="465" y="765" name="above"/>
  <anchor x="495" y="735" name="aboveleft"/>
  <anchor x="510" y="-135" name="b.U0740"/>
  <anchor x="510" y="-150" name="below"/>
  <anchor x="510" y="-150" name="belowleft"/>
  <outline>
    <contour>
      <point x="868" y="-148" type="curve" smooth="yes"/>
      <point x="876" y="-148"/>
      <point x="880" y="-138"/>
      <point x="880" y="-117" type="curve" smooth="yes"/>
      <point x="872" y="616" type="line" smooth="yes"/>
      <point x="872" y="636"/>
      <point x="869" y="646"/>
      <point x="862" y="646" type="curve" smooth="yes"/>
      <point x="859" y="646"/>
      <point x="849" y="638"/>
      <point x="831" y="623" type="curve" smooth="yes"/>
      <point x="813" y="608"/>
      <point x="790" y="600"/>
      <point x="763" y="600" type="curve" smooth="yes"/>
      <point x="327" y="600" type="line" smooth="yes"/>
      <point x="263" y="600"/>
      <point x="210" y="564"/>
      <point x="167" y="491" type="curve" smooth="yes"/>
      <point x="130" y="429"/>
      <point x="111" y="365"/>
      <point x="111" y="298" type="curve" smooth="yes"/>
      <point x="111" y="205"/>
      <point x="139" y="130"/>
      <point x="195" y="74" type="curve" smooth="yes"/>
      <point x="249" y="19"/>
      <point x="319" y="-8"/>
      <point x="406" y="-8" type="curve" smooth="yes"/>
      <point x="526" y="-8"/>
      <point x="605" y="40"/>
      <point x="644" y="137" type="curve" smooth="yes"/>
      <point x="667" y="195"/>
      <point x="679" y="297"/>
      <point x="679" y="442" type="curve"/>
      <point x="806" y="442" type="line"/>
      <point x="852" y="-118" type="line" smooth="yes"/>
      <point x="854" y="-138"/>
      <point x="859" y="-148"/>
    </contour>
    <contour>
      <point x="406" y="150" type="curve" smooth="yes"/>
      <point x="362" y="150"/>
      <point x="324" y="170"/>
      <point x="291" y="209" type="curve" smooth="yes"/>
      <point x="260" y="246"/>
      <point x="245" y="286"/>
      <point x="245" y="329" type="curve" smooth="yes"/>
      <point x="245" y="353"/>
      <point x="252" y="377"/>
      <point x="267" y="401" type="curve" smooth="yes"/>
      <point x="285" y="428"/>
      <point x="307" y="442"/>
      <point x="332" y="442" type="curve" smooth="yes"/>
      <point x="568" y="442" type="line"/>
      <point x="574" y="410"/>
      <point x="577" y="383"/>
      <point x="577" y="360" type="curve" smooth="yes"/>
      <point x="577" y="220"/>
      <point x="520" y="150"/>
    </contour>
  </outline>
</glyph>
<glyph name="waw-syriac" format="2">
  <advance width="761"/>
  <unicode hex="0718"/>
  <anchor x="450" y="-120" name="b.U0325_3"/>
  <anchor x="450" y="-135" name="b.U0331_2"/>
  <anchor x="435" y="-150" name="b.U0740"/>
  <anchor x="435" y="720" name="m.U030a_1"/>
  <anchor x="390" y="720" name="t.U0656"/>
  <outline>
    <contour>
      <point x="427" y="-8" type="curve" smooth="yes"/>
      <point x="582" y="-8"/>
      <point x="674" y="18"/>
      <point x="705" y="70" type="curve" smooth="yes"/>
      <point x="720" y="96"/>
      <point x="728" y="153"/>
      <point x="728" y="242" type="curve" smooth="yes"/>
      <point x="728" y="347"/>
      <point x="700" y="434"/>
      <point x="645" y="503" type="curve" smooth="yes"/>
      <point x="584" y="578"/>
      <point x="502" y="616"/>
      <point x="398" y="616" type="curve" smooth="yes"/>
      <point x="312" y="616"/>
      <point x="242" y="580"/>
      <point x="189" y="507" type="curve" smooth="yes"/>
      <point x="140" y="441"/>
      <point x="116" y="361"/>
      <point x="116" y="268" type="curve" smooth="yes"/>
      <point x="116" y="160"/>
      <point x="146" y="80"/>
      <point x="206" y="29" type="curve" smooth="yes"/>
      <point x="235" y="4"/>
      <point x="309" y="-8"/>
    </contour>
    <contour>
      <point x="430" y="150" type="curve" smooth="yes"/>
      <point x="326" y="150"/>
      <point x="274" y="198"/>
      <point x="274" y="293" type="curve" smooth="yes"/>
      <point x="274" y="338"/>
      <point x="285" y="376"/>
      <point x="308" y="407" type="curve" smooth="yes"/>
      <point x="333" y="441"/>
      <point x="365" y="458"/>
      <point x="406" y="458" type="curve" smooth="yes"/>
      <point x="458" y="458"/>
      <point x="499" y="441"/>
      <point x="529" y="408" type="curve" smooth="yes"/>
      <point x="556" y="377"/>
      <point x="570" y="336"/>
      <point x="570" y="287" type="curve" smooth="yes"/>
      <point x="570" y="196"/>
      <point x="523" y="150"/>
    </contour>
  </outline>
</glyph>
<glyph name="yudh-syriac" format="2">
  <advance width="758"/>
  <unicode hex="071D"/>
  <anchor x="420" y="-120" name="b.U0325_3"/>
  <anchor x="435" y="-120" name="b.U0331_2"/>
  <anchor x="480" y="-150" name="b.U0740"/>
  <anchor x="420" y="480" name="m.U030a_1"/>
  <anchor x="435" y="510" name="t.U0656"/>
  <outline>
    <contour>
      <point x="743" y="-12" type="curve"/>
      <point x="743" y="126" type="line" smooth="yes"/>
      <point x="743" y="146"/>
      <point x="698" y="170"/>
      <point x="663" y="191" type="curve"/>
      <point x="553" y="265"/>
      <point x="471" y="328"/>
      <point x="416" y="379" type="curve"/>
      <point x="399" y="158" type="line"/>
      <point x="213" y="158" type="line" smooth="yes"/>
      <point x="168" y="158"/>
      <point x="131" y="169"/>
      <point x="103" y="191" type="curve" smooth="yes"/>
      <point x="84" y="205"/>
      <point x="69" y="225"/>
      <point x="57" y="251" type="curve" smooth="yes"/>
      <point x="47" y="273"/>
      <point x="41" y="284"/>
      <point x="40" y="284" type="curve" smooth="yes"/>
      <point x="22" y="284"/>
      <point x="13" y="256"/>
      <point x="13" y="199" type="curve" smooth="yes"/>
      <point x="13" y="112"/>
      <point x="36" y="54"/>
      <point x="83" y="25" type="curve" smooth="yes"/>
      <point x="110" y="8"/>
      <point x="153" y="0"/>
      <point x="213" y="0" type="curve" smooth="yes"/>
      <point x="452" y="0" type="line"/>
      <point x="460" y="158" type="line"/>
      <point x="522" y="91"/>
      <point x="616" y="34"/>
    </contour>
  </outline>
</glyph>
<glyph name="yudhhe-syriac" format="2">
  <advance width="1318"/>
  <unicode hex="071E"/>
  <anchor x="1185" y="660" name="above"/>
  <anchor x="1665" y="-135" name="b.U0325_3"/>
  <anchor x="1470" y="-225" name="b.U0740"/>
  <anchor x="1290" y="-195" name="below"/>
  <anchor x="1890" y="555" name="m.U030a_1"/>
  <outline>
    <contour>
      <point x="816" y="-148" type="curve" smooth="yes"/>
      <point x="824" y="-148"/>
      <point x="828" y="-138"/>
      <point x="828" y="-117" type="curve" smooth="yes"/>
      <point x="827" y="0" type="line"/>
      <point x="996" y="0" type="line"/>
      <point x="1004" y="158" type="line"/>
      <point x="1066" y="91"/>
      <point x="1161" y="34"/>
      <point x="1288" y="-12" type="curve"/>
      <point x="1288" y="126" type="line" smooth="yes"/>
      <point x="1288" y="146"/>
      <point x="1242" y="170"/>
      <point x="1207" y="191" type="curve"/>
      <point x="1098" y="265"/>
      <point x="1015" y="328"/>
      <point x="960" y="379" type="curve"/>
      <point x="943" y="158" type="line"/>
      <point x="825" y="158" type="line"/>
      <point x="820" y="616" type="line" smooth="yes"/>
      <point x="820" y="636"/>
      <point x="817" y="646"/>
      <point x="810" y="646" type="curve" smooth="yes"/>
      <point x="807" y="646"/>
      <point x="797" y="638"/>
      <point x="779" y="623" type="curve" smooth="yes"/>
      <point x="761" y="608"/>
      <point x="738" y="600"/>
      <point x="711" y="600" type="curve" smooth="yes"/>
      <point x="275" y="600" type="line" smooth="yes"/>
      <point x="212" y="600"/>
      <point x="158" y="564"/>
      <point x="115" y="491" type="curve" smooth="yes"/>
      <point x="78" y="429"/>
      <point x="59" y="365"/>
      <point x="59" y="298" type="curve" smooth="yes"/>
      <point x="59" y="205"/>
      <point x="87" y="130"/>
      <point x="143" y="74" type="curve" smooth="yes"/>
      <point x="197" y="19"/>
      <point x="268" y="-8"/>
      <point x="355" y="-8" type="curve" smooth="yes"/>
      <point x="474" y="-8"/>
      <point x="553" y="40"/>
      <point x="592" y="137" type="curve" smooth="yes"/>
      <point x="615" y="195"/>
      <point x="627" y="297"/>
      <point x="627" y="442" type="curve"/>
      <point x="754" y="442" type="line"/>
      <point x="800" y="-118" type="line" smooth="yes"/>
      <point x="802" y="-138"/>
      <point x="807" y="-148"/>
    </contour>
    <contour>
      <point x="355" y="-220" type="curve" smooth="yes"/>
      <point x="392" y="-220"/>
      <point x="422" y="-189"/>
      <point x="422" y="-152" type="curve" smooth="yes"/>
      <point x="422" y="-115"/>
      <point x="392" y="-84"/>
      <point x="355" y="-84" type="curve" smooth="yes"/>
      <point x="316" y="-84"/>
      <point x="287" y="-115"/>
      <point x="287" y="-152" type="curve" smooth="yes"/>
      <point x="287" y="-189"/>
      <point x="316" y="-220"/>
    </contour>
    <contour>
      <point x="354" y="150" type="curve" smooth="yes"/>
      <point x="310" y="150"/>
      <point x="272" y="170"/>
      <point x="239" y="209" type="curve" smooth="yes"/>
      <point x="208" y="246"/>
      <point x="193" y="286"/>
      <point x="193" y="329" type="curve" smooth="yes"/>
      <point x="193" y="353"/>
      <point x="201" y="377"/>
      <point x="216" y="401" type="curve" smooth="yes"/>
      <point x="233" y="428"/>
      <point x="255" y="442"/>
      <point x="280" y="442" type="curve" smooth="yes"/>
      <point x="516" y="442" type="line"/>
      <point x="522" y="410"/>
      <point x="525" y="383"/>
      <point x="525" y="360" type="curve" smooth="yes"/>
      <point x="525" y="220"/>
      <point x="468" y="150"/>
    </contour>
    <contour>
      <point x="244" y="694" type="curve" smooth="yes"/>
      <point x="281" y="694"/>
      <point x="312" y="723"/>
      <point x="312" y="762" type="curve" smooth="yes"/>
      <point x="312" y="799"/>
      <point x="281" y="829"/>
      <point x="244" y="829" type="curve" smooth="yes"/>
      <point x="207" y="829"/>
      <point x="176" y="799"/>
      <point x="176" y="762" type="curve" smooth="yes"/>
      <point x="176" y="723"/>
      <point x="207" y="694"/>
    </contour>
    <contour>
      <point x="472" y="694" type="curve" smooth="yes"/>
      <point x="509" y="694"/>
      <point x="540" y="723"/>
      <point x="540" y="762" type="curve" smooth="yes"/>
      <point x="540" y="799"/>
      <point x="509" y="829"/>
      <point x="472" y="829" type="curve" smooth="yes"/>
      <point x="435" y="829"/>
      <point x="404" y="799"/>
      <point x="404" y="762" type="curve" smooth="yes"/>
      <point x="404" y="723"/>
      <point x="435" y="694"/>
    </contour>
    <contour>
      <point x="355" y="898" type="curve" smooth="yes"/>
      <point x="392" y="898"/>
      <point x="422" y="929"/>
      <point x="422" y="966" type="curve" smooth="yes"/>
      <point x="422" y="1003"/>
      <point x="392" y="1034"/>
      <point x="355" y="1034" type="curve" smooth="yes"/>
      <point x="316" y="1034"/>
      <point x="287" y="1003"/>
      <point x="287" y="966" type="curve" smooth="yes"/>
      <point x="287" y="929"/>
      <point x="316" y="898"/>
    </contour>
  </outline>
</glyph>
<glyph name="shin-syriac" format="2">
  <advance width="974"/>
  <unicode hex="072B"/>
  <anchor x="630" y="765" name="above"/>
  <anchor x="630" y="750" name="aboveleft"/>
  <anchor x="630" y="-135" name="b.U0325_3"/>
  <anchor x="675" y="-135" name="b.U0740"/>
  <anchor x="630" y="-120" name="below"/>
  <outline>
    <contour>
      <point x="213" y="0" type="curve" smooth="yes"/>
      <point x="606" y="0" type="line" smooth="yes"/>
      <point x="624" y="0"/>
      <point x="644" y="37"/>
      <point x="666" y="111" type="curve"/>
      <point x="724" y="37"/>
      <point x="782" y="0"/>
      <point x="840" y="0" type="curve" smooth="yes"/>
      <point x="974" y="0" type="line"/>
      <point x="974" y="158" type="line"/>
      <point x="884" y="158" type="line" smooth="yes"/>
      <point x="749" y="158"/>
      <point x="682" y="227"/>
      <point x="682" y="364" type="curve" smooth="yes"/>
      <point x="682" y="393"/>
      <point x="684" y="419"/>
      <point x="688" y="442" type="curve"/>
      <point x="757" y="442" type="line" smooth="yes"/>
      <point x="811" y="442"/>
      <point x="849" y="448"/>
      <point x="872" y="461" type="curve" smooth="yes"/>
      <point x="909" y="482"/>
      <point x="927" y="522"/>
      <point x="927" y="583" type="curve" smooth="yes"/>
      <point x="927" y="641"/>
      <point x="919" y="670"/>
      <point x="904" y="670" type="curve" smooth="yes"/>
      <point x="903" y="670"/>
      <point x="899" y="664"/>
      <point x="894" y="652" type="curve" smooth="yes"/>
      <point x="887" y="637"/>
      <point x="876" y="626"/>
      <point x="861" y="618" type="curve" smooth="yes"/>
      <point x="838" y="606"/>
      <point x="803" y="600"/>
      <point x="757" y="600" type="curve" smooth="yes"/>
      <point x="526" y="600" type="line" smooth="yes"/>
      <point x="481" y="600"/>
      <point x="446" y="606"/>
      <point x="423" y="618" type="curve" smooth="yes"/>
      <point x="407" y="626"/>
      <point x="396" y="637"/>
      <point x="390" y="652" type="curve" smooth="yes"/>
      <point x="385" y="664"/>
      <point x="381" y="670"/>
      <point x="379" y="670" type="curve" smooth="yes"/>
      <point x="364" y="670"/>
      <point x="357" y="641"/>
      <point x="357" y="583" type="curve" smooth="yes"/>
      <point x="357" y="522"/>
      <point x="375" y="482"/>
      <point x="411" y="461" type="curve" smooth="yes"/>
      <point x="434" y="448"/>
      <point x="473" y="442"/>
      <point x="526" y="442" type="curve" smooth="yes"/>
      <point x="599" y="442" type="line"/>
      <point x="599" y="158" type="line"/>
      <point x="213" y="158" type="line" smooth="yes"/>
      <point x="168" y="158"/>
      <point x="131" y="169"/>
      <point x="103" y="191" type="curve" smooth="yes"/>
      <point x="84" y="205"/>
      <point x="69" y="225"/>
      <point x="57" y="251" type="curve" smooth="yes"/>
      <point x="47" y="273"/>
      <point x="41" y="284"/>
      <point x="40" y="284" type="curve" smooth="yes"/>
      <point x="22" y="284"/>
      <point x="13" y="256"/>
      <point x="13" y="199" type="curve" smooth="yes"/>
      <point x="13" y="112"/>
      <point x="36" y="54"/>
      <point x="83" y="25" type="curve" smooth="yes"/>
      <point x="110" y="8"/>
      <point x="153" y="0"/>
    </contour>
  </outline>
</glyph>
<glyph name="pthahaabove-syriac" format="2">
  <unicode hex="0730"/>
  <anchor x="195" y="60" name="_above"/>
  <anchor x="255" y="90" name="_above_1"/>
  <anchor x="165" y="45" name="_t.U0656_2"/>
  <anchor x="165" y="435" name="t.U0656_2"/>
  <outline>
    <contour>
      <point x="28" y="0" type="line"/>
      <point x="372" y="241" type="line"/>
      <point x="343" y="278" type="line"/>
      <point x="302" y="249" type="line"/>
      <point x="86" y="288" type="line"/>
      <point x="49" y="71" type="line"/>
      <point x="-1" y="37" type="line"/>
    </contour>
    <contour>
      <point x="94" y="104" type="line"/>
      <point x="121" y="243" type="line"/>
      <point x="258" y="218" type="line"/>
    </contour>
  </outline>
</glyph>
<glyph name="zqaphadotted-syriac" format="2">
  <unicode hex="0735"/>
  <anchor x="270" y="120" name="_above"/>
  <anchor x="270" y="105" name="_m.U0656"/>
  <anchor x="270" y="150" name="_t.U0656_2"/>
  <anchor x="270" y="510" name="t.U0656_2"/>
  <outline>
    <contour>
      <point x="316" y="88" type="curve" smooth="yes"/>
      <point x="348" y="88"/>
      <point x="377" y="111"/>
      <point x="403" y="157" type="curve" smooth="yes"/>
      <point x="418" y="182"/>
      <point x="425" y="209"/>
      <point x="425" y="240" type="curve" smooth="yes"/>
      <point x="425" y="258"/>
      <point x="421" y="269"/>
      <point x="412" y="274" type="curve" smooth="yes"/>
      <point x="407" y="277"/>
      <point x="401" y="279"/>
      <point x="394" y="279" type="curve" smooth="yes"/>
      <point x="361" y="279"/>
      <point x="330" y="255"/>
      <point x="303" y="208" type="curve" smooth="yes"/>
      <point x="289" y="184"/>
      <point x="282" y="158"/>
      <point x="282" y="131" type="curve" smooth="yes"/>
      <point x="282" y="112"/>
      <point x="287" y="99"/>
      <point x="298" y="93" type="curve" smooth="yes"/>
      <point x="303" y="90"/>
      <point x="309" y="88"/>
    </contour>
    <contour>
      <point x="144" y="192" type="curve" smooth="yes"/>
      <point x="176" y="192"/>
      <point x="205" y="215"/>
      <point x="232" y="260" type="curve" smooth="yes"/>
      <point x="246" y="285"/>
      <point x="253" y="313"/>
      <point x="253" y="343" type="curve" smooth="yes"/>
      <point x="253" y="361"/>
      <point x="249" y="373"/>
      <point x="240" y="378" type="curve" smooth="yes"/>
      <point x="235" y="381"/>
      <point x="229" y="382"/>
      <point x="222" y="382" type="curve" smooth="yes"/>
      <point x="189" y="382"/>
      <point x="158" y="358"/>
      <point x="131" y="311" type="curve" smooth="yes"/>
      <point x="117" y="287"/>
      <point x="110" y="261"/>
      <point x="110" y="234" type="curve" smooth="yes"/>
      <point x="110" y="215"/>
      <point x="115" y="202"/>
      <point x="126" y="196" type="curve" smooth="yes"/>
      <point x="131" y="193"/>
      <point x="137" y="192"/>
    </contour>
  </outline>
</glyph>
<glyph name="rbasaabove-syriac" format="2">
  <unicode hex="0736"/>
  <anchor x="210" y="30" name="_above"/>
  <anchor x="195" y="435" name="above"/>
  <outline>
    <contour>
      <point x="129" y="0" type="line"/>
      <point x="250" y="211" type="line"/>
      <point x="275" y="186"/>
      <point x="287" y="151"/>
      <point x="287" y="108" type="curve" smooth="yes"/>
      <point x="287" y="81"/>
      <point x="282" y="48"/>
      <point x="272" y="9" type="curve"/>
      <point x="320" y="57" type="line"/>
      <point x="327" y="88"/>
      <point x="331" y="116"/>
      <point x="331" y="141" type="curve" smooth="yes"/>
      <point x="331" y="233"/>
      <point x="272" y="296"/>
      <point x="180" y="296" type="curve" smooth="yes"/>
      <point x="125" y="296"/>
      <point x="67" y="264"/>
      <point x="5" y="199" type="curve"/>
      <point x="55" y="232"/>
      <point x="104" y="249"/>
      <point x="152" y="249" type="curve" smooth="yes"/>
      <point x="173" y="249"/>
      <point x="192" y="246"/>
      <point x="209" y="239" type="curve"/>
      <point x="86" y="25" type="line"/>
    </contour>
  </outline>
</glyph>
<glyph name="zlamadottedhorizontal-syriac" format="2">
  <unicode hex="0738"/>
  <anchor x="450" y="-180" name="_b.U0331_2_2"/>
  <anchor x="480" y="-165" name="_below"/>
  <anchor x="465" y="-465" name="below"/>
  <outline>
    <contour>
      <point x="570" y="-346" type="curve" smooth="yes"/>
      <point x="589" y="-346"/>
      <point x="604" y="-332"/>
      <point x="616" y="-304" type="curve" smooth="yes"/>
      <point x="625" y="-282"/>
      <point x="630" y="-260"/>
      <point x="630" y="-238" type="curve" smooth="yes"/>
      <point x="630" y="-220"/>
      <point x="625" y="-199"/>
      <point x="616" y="-175" type="curve" smooth="yes"/>
      <point x="605" y="-146"/>
      <point x="593" y="-132"/>
      <point x="578" y="-132" type="curve" smooth="yes"/>
      <point x="559" y="-132"/>
      <point x="543" y="-147"/>
      <point x="531" y="-176" type="curve" smooth="yes"/>
      <point x="522" y="-199"/>
      <point x="517" y="-221"/>
      <point x="517" y="-244" type="curve" smooth="yes"/>
      <point x="517" y="-263"/>
      <point x="521" y="-284"/>
      <point x="530" y="-305" type="curve" smooth="yes"/>
      <point x="541" y="-332"/>
      <point x="554" y="-346"/>
    </contour>
    <contour>
      <point x="387" y="-351" type="curve" smooth="yes"/>
      <point x="406" y="-351"/>
      <point x="421" y="-337"/>
      <point x="432" y="-309" type="curve" smooth="yes"/>
      <point x="441" y="-287"/>
      <point x="446" y="-265"/>
      <point x="446" y="-243" type="curve" smooth="yes"/>
      <point x="446" y="-225"/>
      <point x="442" y="-204"/>
      <point x="433" y="-181" type="curve" smooth="yes"/>
      <point x="422" y="-152"/>
      <point x="409" y="-137"/>
      <point x="394" y="-137" type="curve" smooth="yes"/>
      <point x="375" y="-137"/>
      <point x="359" y="-152"/>
      <point x="347" y="-181" type="curve" smooth="yes"/>
      <point x="338" y="-204"/>
      <point x="333" y="-227"/>
      <point x="333" y="-250" type="curve" smooth="yes"/>
      <point x="333" y="-269"/>
      <point x="338" y="-289"/>
      <point x="347" y="-311" type="curve" smooth="yes"/>
      <point x="358" y="-338"/>
      <point x="371" y="-351"/>
    </contour>
  </outline>
</glyph>
<glyph name="zlamadottedangular-syriac" format="2">
  <unicode hex="0739"/>
  <anchor x="480" y="-210" name="_b.U0331_2_2"/>
  <anchor x="495" y="-210" name="_below"/>
  <anchor x="480" y="-540" name="below"/>
  <outline>
    <contour>
      <point x="543" y="-374" type="curve" smooth="yes"/>
      <point x="562" y="-377"/>
      <point x="579" y="-366"/>
      <point x="595" y="-341" type="curve" smooth="yes"/>
      <point x="608" y="-321"/>
      <point x="616" y="-300"/>
      <point x="620" y="-278" type="curve" smooth="yes"/>
      <point x="623" y="-261"/>
      <point x="623" y="-240"/>
      <point x="618" y="-215" type="curve" smooth="yes"/>
      <point x="612" y="-184"/>
      <point x="602" y="-168"/>
      <point x="588" y="-165" type="curve" smooth="yes"/>
      <point x="569" y="-162"/>
      <point x="551" y="-173"/>
      <point x="534" y="-200" type="curve" smooth="yes"/>
      <point x="521" y="-221"/>
      <point x="512" y="-243"/>
      <point x="508" y="-265" type="curve" smooth="yes"/>
      <point x="505" y="-284"/>
      <point x="505" y="-304"/>
      <point x="510" y="-327" type="curve" smooth="yes"/>
      <point x="516" y="-356"/>
      <point x="527" y="-371"/>
    </contour>
    <contour>
      <point x="350" y="-453" type="curve" smooth="yes"/>
      <point x="369" y="-456"/>
      <point x="386" y="-445"/>
      <point x="402" y="-420" type="curve" smooth="yes"/>
      <point x="415" y="-400"/>
      <point x="424" y="-379"/>
      <point x="427" y="-357" type="curve" smooth="yes"/>
      <point x="430" y="-340"/>
      <point x="430" y="-318"/>
      <point x="425" y="-293" type="curve" smooth="yes"/>
      <point x="420" y="-262"/>
      <point x="410" y="-246"/>
      <point x="395" y="-244" type="curve" smooth="yes"/>
      <point x="376" y="-241"/>
      <point x="358" y="-252"/>
      <point x="341" y="-279" type="curve" smooth="yes"/>
      <point x="328" y="-300"/>
      <point x="319" y="-322"/>
      <point x="315" y="-344" type="curve" smooth="yes"/>
      <point x="312" y="-363"/>
      <point x="313" y="-383"/>
      <point x="318" y="-406" type="curve" smooth="yes"/>
      <point x="323" y="-435"/>
      <point x="334" y="-450"/>
    </contour>
  </outline>
</glyph>
<glyph name="hbasaabove-syriac" format="2">
  <unicode hex="073A"/>
  <anchor x="150" y="15" name="_above"/>
  <anchor x="150" y="0" name="_above_1"/>
  <anchor x="135" y="45" name="_t.U0656_2"/>
  <anchor x="150" y="300" name="t.U0656_2"/>
  <outline>
    <contour>
      <point x="0" y="0" type="line"/>
      <point x="314" y="0" type="line"/>
      <point x="314" y="48" type="line"/>
      <point x="187" y="48" type="line"/>
      <point x="187" y="113" type="line"/>
      <point x="314" y="113" type="line"/>
      <point x="314" y="162" type="line"/>
      <point x="0" y="162" type="line"/>
      <point x="0" y="113" type="line"/>
      <point x="127" y="113" type="line"/>
      <point x="127" y="48" type="line"/>
      <point x="0" y="48" type="line"/>
    </contour>
  </outline>
</glyph>
<glyph name="hbasaEsasadotted-syriac" format="2">
  <unicode hex="073C"/>
  <anchor x="75" y="-60" name="_b.U0331"/>
  <anchor x="90" y="-45" name="_b.U0331_2"/>
  <anchor x="75" y="-90" name="_b.U0331_2_2"/>
  <anchor x="90" y="-390" name="b.U0331"/>
  <outline>
    <contour>
      <point x="77" y="-238" type="curve" smooth="yes"/>
      <point x="96" y="-238"/>
      <point x="111" y="-224"/>
      <point x="122" y="-196" type="curve" smooth="yes"/>
      <point x="131" y="-174"/>
      <point x="136" y="-152"/>
      <point x="136" y="-130" type="curve" smooth="yes"/>
      <point x="136" y="-112"/>
      <point x="132" y="-91"/>
      <point x="123" y="-67" type="curve" smooth="yes"/>
      <point x="112" y="-38"/>
      <point x="99" y="-24"/>
      <point x="84" y="-24" type="curve" smooth="yes"/>
      <point x="65" y="-24"/>
      <point x="49" y="-39"/>
      <point x="37" y="-68" type="curve" smooth="yes"/>
      <point x="28" y="-91"/>
      <point x="23" y="-113"/>
      <point x="23" y="-136" type="curve" smooth="yes"/>
      <point x="23" y="-155"/>
      <point x="27" y="-176"/>
      <point x="36" y="-197" type="curve" smooth="yes"/>
      <point x="47" y="-224"/>
      <point x="61" y="-238"/>
    </contour>
  </outline>
</glyph>
<glyph name="esasaabove-syriac" format="2">
  <unicode hex="073D"/>
  <anchor x="240" y="60" name="_above"/>
  <anchor x="225" y="75" name="_above_1"/>
  <anchor x="210" y="30" name="_t.U0656_2"/>
  <anchor x="180" y="435" name="t.U0656_2"/>
  <outline>
    <contour>
      <point x="293" y="40" type="line"/>
      <point x="336" y="69" type="line"/>
      <point x="212" y="245" type="line"/>
      <point x="330" y="326" type="line"/>
      <point x="302" y="366" type="line"/>
      <point x="-2" y="153" type="line"/>
      <point x="26" y="113" type="line"/>
      <point x="172" y="216" type="line"/>
    </contour>
    <contour>
      <point x="150" y="0" type="curve" smooth="yes"/>
      <point x="190" y="0"/>
      <point x="224" y="34"/>
      <point x="224" y="75" type="curve" smooth="yes"/>
      <point x="224" y="114"/>
      <point x="189" y="149"/>
      <point x="150" y="149" type="curve" smooth="yes"/>
      <point x="110" y="149"/>
      <point x="75" y="115"/>
      <point x="75" y="75" type="curve" smooth="yes"/>
      <point x="75" y="34"/>
      <point x="110" y="0"/>
    </contour>
    <contour>
      <point x="150" y="38" type="curve" smooth="yes"/>
      <point x="125" y="38"/>
      <point x="112" y="50"/>
      <point x="112" y="75" type="curve" smooth="yes"/>
      <point x="112" y="100"/>
      <point x="125" y="112"/>
      <point x="150" y="112" type="curve" smooth="yes"/>
      <point x="175" y="112"/>
      <point x="187" y="100"/>
      <point x="187" y="75" type="curve" smooth="yes"/>
      <point x="187" y="50"/>
      <point x="175" y="38"/>
    </contour>
  </outline>
</glyph>
<glyph name="rwaha-syriac" format="2">
  <unicode hex="073F"/>
  <anchor x="90" y="15" name="_above"/>
  <anchor x="105" y="0" name="_m.U0656"/>
  <anchor x="90" y="30" name="_t.U0656_2"/>
  <anchor x="75" y="375" name="t.U0656_2"/>
  <outline>
    <contour>
      <point x="76" y="1" type="curve" smooth="yes"/>
      <point x="95" y="1"/>
      <point x="110" y="15"/>
      <point x="121" y="43" type="curve" smooth="yes"/>
      <point x="130" y="65"/>
      <point x="135" y="87"/>
      <point x="135" y="109" type="curve" smooth="yes"/>
      <point x="135" y="127"/>
      <point x="131" y="148"/>
      <point x="122" y="172" type="curve" smooth="yes"/>
      <point x="111" y="201"/>
      <point x="98" y="215"/>
      <point x="83" y="215" type="curve" smooth="yes"/>
      <point x="64" y="215"/>
      <point x="48" y="200"/>
      <point x="36" y="171" type="curve" smooth="yes"/>
      <point x="27" y="148"/>
      <point x="22" y="126"/>
      <point x="22" y="103" type="curve" smooth="yes"/>
      <point x="22" y="84"/>
      <point x="26" y="63"/>
      <point x="35" y="42" type="curve" smooth="yes"/>
      <point x="46" y="15"/>
      <point x="60" y="1"/>
    </contour>
  </outline>
</glyph>
<glyph name="femininedot-syriac" format="2">
  <unicode hex="0740"/>
  <anchor x="320" y="-65" name="_aboveleft"/>
  <outline>
    <contour>
      <point x="269" y="-110" type="curve" smooth="yes"/>
      <point x="306" y="-110"/>
      <point x="324" y="-92"/>
      <point x="324" y="-55" type="curve" smooth="yes"/>
      <point x="324" y="-18"/>
      <point x="306" y="0"/>
      <point x="269" y="0" type="curve" smooth="yes"/>
      <point x="232" y="0"/>
      <point x="214" y="-18"/>
      <point x="214" y="-55" type="curve" smooth="yes"/>
      <point x="214" y="-92"/>
      <point x="232" y="-110"/>
    </contour>
    <contour>
      <point x="55" y="-110" type="curve" smooth="yes"/>
      <point x="92" y="-110"/>
      <point x="110" y="-92"/>
      <point x="110" y="-55" type="curve" smooth="yes"/>
      <point x="110" y="-18"/>
      <point x="92" y="0"/>
      <point x="55" y="0" type="curve" smooth="yes"/>
      <point x="18" y="0"/>
      <point x="0" y="-18"/>
      <point x="0" y="-55" type="curve" smooth="yes"/>
      <point x="0" y="-92"/>
      <point x="18" y="-110"/>
    </contour>
  </outline>
</glyph>
<glyph name="rukkakha-syriac" format="2">
  <unicode hex="0742"/>
  <anchor x="60" y="-45" name="_below"/>
  <anchor x="90" y="-330" name="below"/>
  <outline>
    <contour>
      <point x="78" y="-239" type="curve" smooth="yes"/>
      <point x="97" y="-239"/>
      <point x="112" y="-225"/>
      <point x="124" y="-197" type="curve" smooth="yes"/>
      <point x="133" y="-175"/>
      <point x="137" y="-153"/>
      <point x="137" y="-131" type="curve" smooth="yes"/>
      <point x="137" y="-113"/>
      <point x="133" y="-92"/>
      <point x="124" y="-69" type="curve" smooth="yes"/>
      <point x="113" y="-40"/>
      <point x="101" y="-25"/>
      <point x="86" y="-25" type="curve" smooth="yes"/>
      <point x="67" y="-25"/>
      <point x="51" y="-40"/>
      <point x="39" y="-69" type="curve" smooth="yes"/>
      <point x="30" y="-92"/>
      <point x="25" y="-115"/>
      <point x="25" y="-137" type="curve" smooth="yes"/>
      <point x="25" y="-156"/>
      <point x="29" y="-177"/>
      <point x="38" y="-199" type="curve" smooth="yes"/>
      <point x="49" y="-226"/>
      <point x="62" y="-239"/>
    </contour>
  </outline>
</glyph>
<glyph name="obliquelineabove-syriac" format="2">
  <unicode hex="0747"/>
  <anchor x="150" y="60" name="_above"/>
  <anchor x="150" y="0" name="_above_1"/>
  <anchor x="150" y="15" name="_above_2"/>
  <anchor x="150" y="390" name="above_2"/>
  <outline>
    <contour>
      <point x="-5" y="38" type="line"/>
      <point x="312" y="187" type="line"/>
      <point x="294" y="226" type="line"/>
      <point x="-23" y="76" type="line"/>
    </contour>
  </outline>
</glyph>
<glyph name="music-syriac" format="2">
  <unicode hex="0749"/>
  <anchor x="375" y="15" name="_m.U0656"/>
  <anchor x="330" y="180" name="_t.U0656"/>
  <anchor x="255" y="120" name="_t.U0656_2"/>
  <anchor x="270" y="585" name="t.U0656_2"/>
  <outline>
    <contour>
      <point x="12" y="20" type="line"/>
      <point x="502" y="363" type="line"/>
      <point x="502" y="415" type="line"/>
      <point x="11" y="70" type="line"/>
    </contour>
  </outline>
</glyph>
<glyph name="quoteright" format="2">
  <advance width="374"/>
  <unicode hex="2019"/>
  <outline>
    <contour>
      <point x="69" y="514" type="line"/>
      <point x="215" y="571"/>
      <point x="301" y="696"/>
      <point x="301" y="826" type="curve" smooth="yes"/>
      <point x="301" y="935"/>
      <point x="242" y="980"/>
      <point x="185" y="980" type="curve" smooth="yes"/>
      <point x="124" y="980"/>
      <point x="82" y="936"/>
      <point x="82" y="886" type="curve" smooth="yes"/>
      <point x="82" y="794"/>
      <point x="178" y="801"/>
      <point x="178" y="715" type="curve" smooth="yes"/>
      <point x="178" y="652"/>
      <point x="136" y="602"/>
      <point x="45" y="563" type="curve"/>
    </contour>
  </outline>
</glyph>
<glyph name="quotesinglbase" format="2">
  <advance width="369"/>
  <unicode hex="201A"/>
  <outline>
    <contour>
      <point x="66" y="-268" type="line"/>
      <point x="212" y="-210"/>
      <point x="299" y="-84"/>
      <point x="299" y="42" type="curve" smooth="yes"/>
      <point x="299" y="151"/>
      <point x="239" y="195"/>
      <point x="182" y="195" type="curve" smooth="yes"/>
      <point x="121" y="195"/>
      <point x="79" y="151"/>
      <point x="79" y="102" type="curve" smooth="yes"/>
      <point x="79" y="11"/>
      <point x="175" y="16"/>
      <point x="175" y="-67" type="curve" smooth="yes"/>
      <point x="175" y="-130"/>
      <point x="133" y="-180"/>
      <point x="43" y="-219" type="curve"/>
    </contour>
  </outline>
</glyph>
<glyph name="quotereversed" format="2">
  <advance width="374"/>
  <unicode hex="201B"/>
  <outline>
    <contour>
      <point x="303" y="514" type="curve"/>
      <point x="326" y="563" type="line"/>
      <point x="237" y="603"/>
      <point x="196" y="653"/>
      <point x="196" y="716" type="curve" smooth="yes"/>
      <point x="196" y="800"/>
      <point x="292" y="795"/>
      <point x="292" y="886" type="curve" smooth="yes"/>
      <point x="292" y="937"/>
      <point x="250" y="980"/>
      <point x="189" y="980" type="curve" smooth="yes"/>
      <point x="131" y="980"/>
      <point x="73" y="935"/>
      <point x="73" y="826" type="curve" smooth="yes"/>
      <point x="73" y="698"/>
      <point x="158" y="573"/>
    </contour>
  </outline>
</glyph>
<glyph name="westSyriacCross" format="2">
  <advance width="1257"/>
  <unicode hex="2670"/>
  <outline>
    <contour>
      <point x="442" y="3" type="line"/>
      <point x="945" y="3" type="line"/>
      <point x="945" y="31" type="line"/>
      <point x="904" y="31" type="line"/>
      <point x="904" y="53" type="line"/>
      <point x="868" y="53" type="line"/>
      <point x="868" y="76" type="line"/>
      <point x="835" y="76" type="line"/>
      <point x="835" y="94" type="line"/>
      <point x="801" y="94" type="line"/>
      <point x="734" y="554" type="line"/>
      <point x="757" y="572" type="line"/>
      <point x="769" y="584"/>
      <point x="781" y="603"/>
      <point x="781" y="611" type="curve"/>
      <point x="974" y="546" type="line"/>
      <point x="974" y="509"/>
      <point x="993" y="490"/>
      <point x="1030" y="490" type="curve"/>
      <point x="1047" y="493"/>
      <point x="1059" y="496"/>
      <point x="1064" y="500" type="curve" smooth="yes"/>
      <point x="1081" y="513"/>
      <point x="1089" y="528"/>
      <point x="1088" y="546" type="curve" smooth="yes"/>
      <point x="1087" y="572"/>
      <point x="1076" y="589"/>
      <point x="1056" y="596" type="curve" smooth="yes"/>
      <point x="1062" y="594"/>
      <point x="1073" y="593"/>
      <point x="1088" y="593" type="curve" smooth="yes"/>
      <point x="1125" y="593"/>
      <point x="1144" y="611"/>
      <point x="1144" y="648" type="curve" smooth="yes"/>
      <point x="1144" y="687"/>
      <point x="1125" y="706"/>
      <point x="1088" y="706" type="curve"/>
      <point x="1056" y="702" type="line"/>
      <point x="1077" y="711"/>
      <point x="1088" y="729"/>
      <point x="1088" y="754" type="curve" smooth="yes"/>
      <point x="1088" y="791"/>
      <point x="1069" y="810"/>
      <point x="1030" y="810" type="curve" smooth="yes"/>
      <point x="994" y="810"/>
      <point x="974" y="787"/>
      <point x="974" y="754" type="curve"/>
      <point x="775" y="691" type="line"/>
      <point x="762" y="708" type="line"/>
      <point x="755" y="723"/>
      <point x="735" y="734"/>
      <point x="731" y="734" type="curve"/>
      <point x="801" y="907" type="line"/>
      <point x="838" y="907"/>
      <point x="857" y="926"/>
      <point x="857" y="963" type="curve"/>
      <point x="855" y="980"/>
      <point x="852" y="991"/>
      <point x="848" y="996" type="curve" smooth="yes"/>
      <point x="835" y="1013"/>
      <point x="819" y="1021"/>
      <point x="801" y="1020" type="curve" smooth="yes"/>
      <point x="775" y="1019"/>
      <point x="758" y="1009"/>
      <point x="751" y="989" type="curve"/>
      <point x="754" y="995"/>
      <point x="755" y="1005"/>
      <point x="755" y="1020" type="curve" smooth="yes"/>
      <point x="755" y="1057"/>
      <point x="736" y="1076"/>
      <point x="699" y="1076" type="curve" smooth="yes"/>
      <point x="660" y="1076"/>
      <point x="641" y="1057"/>
      <point x="641" y="1020" type="curve"/>
      <point x="643" y="1000"/>
      <point x="644" y="990"/>
      <point x="645" y="989" type="curve"/>
      <point x="636" y="1010"/>
      <point x="619" y="1020"/>
      <point x="593" y="1020" type="curve" smooth="yes"/>
      <point x="556" y="1020"/>
      <point x="537" y="1001"/>
      <point x="537" y="963" type="curve" smooth="yes"/>
      <point x="537" y="927"/>
      <point x="561" y="907"/>
      <point x="593" y="907" type="curve"/>
      <point x="649" y="734" type="line"/>
      <point x="632" y="721" type="line" smooth="yes"/>
      <point x="625" y="716"/>
      <point x="620" y="711"/>
      <point x="617" y="706" type="curve"/>
      <point x="611" y="700"/>
      <point x="608" y="695"/>
      <point x="608" y="691" type="curve"/>
      <point x="420" y="751" type="line"/>
      <point x="418" y="790"/>
      <point x="399" y="810"/>
      <point x="362" y="810" type="curve"/>
      <point x="345" y="808"/>
      <point x="334" y="805"/>
      <point x="329" y="801" type="curve" smooth="yes"/>
      <point x="312" y="788"/>
      <point x="304" y="772"/>
      <point x="305" y="754" type="curve" smooth="yes"/>
      <point x="306" y="728"/>
      <point x="316" y="711"/>
      <point x="336" y="704" type="curve"/>
      <point x="305" y="708" type="line"/>
      <point x="268" y="708"/>
      <point x="249" y="689"/>
      <point x="249" y="650" type="curve" smooth="yes"/>
      <point x="249" y="613"/>
      <point x="268" y="595"/>
      <point x="305" y="595" type="curve" smooth="yes"/>
      <point x="320" y="595"/>
      <point x="330" y="596"/>
      <point x="336" y="598" type="curve"/>
      <point x="315" y="589"/>
      <point x="305" y="572"/>
      <point x="305" y="546" type="curve" smooth="yes"/>
      <point x="305" y="509"/>
      <point x="324" y="490"/>
      <point x="362" y="490" type="curve" smooth="yes"/>
      <point x="398" y="490"/>
      <point x="418" y="514"/>
      <point x="418" y="546" type="curve"/>
      <point x="604" y="611" type="line"/>
      <point x="617" y="587" type="line"/>
      <point x="624" y="581"/>
      <point x="633" y="574"/>
      <point x="645" y="567" type="curve"/>
      <point x="648" y="564"/>
      <point x="649" y="560"/>
      <point x="649" y="554" type="curve"/>
      <point x="606" y="267" type="line" smooth="yes"/>
      <point x="593" y="174"/>
      <point x="586" y="117"/>
      <point x="584" y="94" type="curve"/>
      <point x="550" y="94" type="line"/>
      <point x="550" y="76" type="line"/>
      <point x="515" y="76" type="line"/>
      <point x="515" y="53" type="line"/>
      <point x="483" y="53" type="line"/>
      <point x="483" y="31" type="line"/>
      <point x="442" y="31" type="line"/>
    </contour>
    <contour>
      <point x="587" y="12" type="curve" smooth="yes"/>
      <point x="568" y="12"/>
      <point x="558" y="21"/>
      <point x="558" y="40" type="curve" smooth="yes"/>
      <point x="559" y="60"/>
      <point x="569" y="70"/>
      <point x="587" y="70" type="curve" smooth="yes"/>
      <point x="606" y="68"/>
      <point x="615" y="58"/>
      <point x="615" y="40" type="curve"/>
      <point x="613" y="32"/>
      <point x="610" y="26"/>
      <point x="606" y="22" type="curve" smooth="yes"/>
      <point x="600" y="15"/>
      <point x="594" y="12"/>
    </contour>
    <contour>
      <point x="688" y="18" type="curve" smooth="yes"/>
      <point x="671" y="25"/>
      <point x="664" y="36"/>
      <point x="667" y="53" type="curve" smooth="yes"/>
      <point x="671" y="69"/>
      <point x="682" y="76"/>
      <point x="701" y="74" type="curve" smooth="yes"/>
      <point x="717" y="71"/>
      <point x="725" y="59"/>
      <point x="725" y="40" type="curve"/>
      <point x="716" y="19"/>
      <point x="703" y="12"/>
    </contour>
    <contour>
      <point x="801" y="12" type="curve" smooth="yes"/>
      <point x="782" y="12"/>
      <point x="772" y="21"/>
      <point x="772" y="40" type="curve" smooth="yes"/>
      <point x="773" y="60"/>
      <point x="783" y="70"/>
      <point x="801" y="70" type="curve" smooth="yes"/>
      <point x="820" y="68"/>
      <point x="829" y="58"/>
      <point x="829" y="40" type="curve"/>
      <point x="827" y="32"/>
      <point x="824" y="26"/>
      <point x="820" y="22" type="curve" smooth="yes"/>
      <point x="814" y="15"/>
      <point x="808" y="12"/>
    </contour>
    <contour>
      <point x="362" y="518" type="curve"/>
      <point x="342" y="522"/>
      <point x="335" y="535"/>
      <point x="335" y="546" type="curve" smooth="yes"/>
      <point x="335" y="566"/>
      <point x="344" y="576"/>
      <point x="362" y="576" type="curve" smooth="yes"/>
      <point x="381" y="574"/>
      <point x="390" y="564"/>
      <point x="390" y="546" type="curve"/>
      <point x="388" y="538"/>
      <point x="385" y="532"/>
      <point x="381" y="528" type="curve" smooth="yes"/>
      <point x="375" y="521"/>
      <point x="369" y="518"/>
    </contour>
    <contour>
      <point x="306" y="623" type="curve" smooth="yes"/>
      <point x="287" y="625"/>
      <point x="277" y="636"/>
      <point x="277" y="655" type="curve" smooth="yes"/>
      <point x="278" y="674"/>
      <point x="288" y="683"/>
      <point x="306" y="683" type="curve" smooth="yes"/>
      <point x="325" y="683"/>
      <point x="334" y="674"/>
      <point x="334" y="655" type="curve" smooth="yes"/>
      <point x="334" y="634"/>
      <point x="325" y="623"/>
    </contour>
    <contour>
      <point x="647" y="102" type="line"/>
      <point x="688" y="537" type="line"/>
      <point x="736" y="102" type="line"/>
    </contour>
    <contour>
      <point x="362" y="725" type="curve" smooth="yes"/>
      <point x="344" y="726"/>
      <point x="335" y="736"/>
      <point x="335" y="754" type="curve" smooth="yes"/>
      <point x="335" y="774"/>
      <point x="344" y="784"/>
      <point x="362" y="784" type="curve" smooth="yes"/>
      <point x="381" y="782"/>
      <point x="390" y="772"/>
      <point x="390" y="754" type="curve" smooth="yes"/>
      <point x="390" y="735"/>
      <point x="381" y="725"/>
    </contour>
    <contour>
      <point x="429" y="611" type="line"/>
      <point x="429" y="686" type="line"/>
      <point x="584" y="652" type="line"/>
    </contour>
    <contour>
      <point x="632" y="580" type="curve"/>
      <point x="628" y="585"/>
      <point x="625" y="589"/>
      <point x="623" y="593" type="curve"/>
      <point x="629" y="601" type="line" smooth="yes"/>
      <point x="630" y="603"/>
      <point x="631" y="604"/>
      <point x="632" y="604" type="curve" smooth="yes"/>
      <point x="635" y="604"/>
      <point x="640" y="600"/>
      <point x="645" y="593" type="curve"/>
      <point x="643" y="589" type="line"/>
      <point x="638" y="583"/>
      <point x="635" y="580"/>
    </contour>
    <contour>
      <point x="632" y="686" type="curve" smooth="yes"/>
      <point x="626" y="686"/>
      <point x="623" y="690"/>
      <point x="623" y="697" type="curve"/>
      <point x="625" y="704"/>
      <point x="628" y="708"/>
      <point x="632" y="708" type="curve" smooth="yes"/>
      <point x="641" y="708"/>
      <point x="645" y="704"/>
      <point x="645" y="697" type="curve"/>
      <point x="643" y="690"/>
      <point x="639" y="686"/>
    </contour>
    <contour>
      <point x="693" y="585" type="curve" smooth="yes"/>
      <point x="670" y="586"/>
      <point x="652" y="595"/>
      <point x="640" y="611" type="curve"/>
      <point x="633" y="623"/>
      <point x="629" y="634"/>
      <point x="630" y="645" type="curve" smooth="yes"/>
      <point x="631" y="668"/>
      <point x="638" y="682"/>
      <point x="651" y="689" type="curve"/>
      <point x="665" y="700"/>
      <point x="678" y="705"/>
      <point x="690" y="704" type="curve" smooth="yes"/>
      <point x="734" y="701"/>
      <point x="747" y="670"/>
      <point x="747" y="647" type="curve" smooth="yes"/>
      <point x="747" y="625"/>
      <point x="740" y="608"/>
      <point x="725" y="595" type="curve" smooth="yes"/>
      <point x="715" y="588"/>
      <point x="704" y="584"/>
    </contour>
    <contour>
      <point x="749" y="587" type="line"/>
      <point x="744" y="589"/>
      <point x="739" y="592"/>
      <point x="736" y="595" type="curve"/>
      <point x="738" y="606"/>
      <point x="742" y="611"/>
      <point x="749" y="611" type="curve"/>
      <point x="753" y="609" type="line"/>
      <point x="757" y="602"/>
      <point x="759" y="597"/>
      <point x="759" y="595" type="curve"/>
    </contour>
    <contour>
      <point x="742" y="689" type="curve"/>
      <point x="739" y="690"/>
      <point x="737" y="691"/>
      <point x="736" y="691" type="curve"/>
      <point x="734" y="694"/>
      <point x="733" y="697"/>
      <point x="733" y="702" type="curve"/>
      <point x="742" y="712" type="line"/>
      <point x="747" y="709"/>
      <point x="751" y="706"/>
      <point x="755" y="702" type="curve"/>
      <point x="753" y="693"/>
      <point x="749" y="689"/>
    </contour>
    <contour>
      <point x="961" y="611" type="line"/>
      <point x="792" y="652" type="line"/>
      <point x="961" y="684" type="line"/>
    </contour>
    <contour>
      <point x="688" y="751" type="line"/>
      <point x="654" y="914" type="line"/>
      <point x="733" y="914" type="line"/>
    </contour>
    <contour>
      <point x="593" y="935" type="curve"/>
      <point x="577" y="939"/>
      <point x="565" y="950"/>
      <point x="565" y="963" type="curve"/>
      <point x="567" y="973"/>
      <point x="570" y="980"/>
      <point x="574" y="983" type="curve" smooth="yes"/>
      <point x="581" y="988"/>
      <point x="588" y="991"/>
      <point x="593" y="991" type="curve" smooth="yes"/>
      <point x="613" y="991"/>
      <point x="623" y="982"/>
      <point x="623" y="963" type="curve" smooth="yes"/>
      <point x="621" y="944"/>
      <point x="611" y="935"/>
    </contour>
    <contour>
      <point x="1030" y="516" type="curve" smooth="yes"/>
      <point x="1011" y="518"/>
      <point x="1002" y="528"/>
      <point x="1002" y="546" type="curve" smooth="yes"/>
      <point x="1002" y="566"/>
      <point x="1011" y="576"/>
      <point x="1030" y="576" type="curve" smooth="yes"/>
      <point x="1049" y="574"/>
      <point x="1058" y="564"/>
      <point x="1058" y="546" type="curve" smooth="yes"/>
      <point x="1058" y="526"/>
      <point x="1049" y="516"/>
    </contour>
    <contour>
      <point x="697" y="991" type="curve" smooth="yes"/>
      <point x="678" y="992"/>
      <point x="669" y="1002"/>
      <point x="669" y="1020" type="curve" smooth="yes"/>
      <point x="669" y="1039"/>
      <point x="678" y="1048"/>
      <point x="697" y="1048" type="curve" smooth="yes"/>
      <point x="718" y="1048"/>
      <point x="729" y="1039"/>
      <point x="729" y="1020" type="curve" smooth="yes"/>
      <point x="727" y="1001"/>
      <point x="716" y="991"/>
    </contour>
    <contour>
      <point x="1088" y="619" type="curve" smooth="yes"/>
      <point x="1068" y="620"/>
      <point x="1058" y="631"/>
      <point x="1058" y="650" type="curve" smooth="yes"/>
      <point x="1060" y="669"/>
      <point x="1070" y="678"/>
      <point x="1088" y="678" type="curve" smooth="yes"/>
      <point x="1107" y="678"/>
      <point x="1116" y="669"/>
      <point x="1116" y="650" type="curve" smooth="yes"/>
      <point x="1116" y="629"/>
      <point x="1107" y="619"/>
    </contour>
    <contour>
      <point x="801" y="935" type="curve" smooth="yes"/>
      <point x="782" y="935"/>
      <point x="772" y="944"/>
      <point x="772" y="963" type="curve" smooth="yes"/>
      <point x="773" y="982"/>
      <point x="783" y="991"/>
      <point x="801" y="991" type="curve" smooth="yes"/>
      <point x="821" y="991"/>
      <point x="831" y="982"/>
      <point x="831" y="963" type="curve" smooth="yes"/>
      <point x="829" y="944"/>
      <point x="819" y="935"/>
    </contour>
    <contour>
      <point x="1030" y="725" type="curve" smooth="yes"/>
      <point x="1011" y="726"/>
      <point x="1002" y="736"/>
      <point x="1002" y="754" type="curve"/>
      <point x="1004" y="763"/>
      <point x="1007" y="769"/>
      <point x="1011" y="773" type="curve" smooth="yes"/>
      <point x="1018" y="779"/>
      <point x="1024" y="782"/>
      <point x="1030" y="782" type="curve" smooth="yes"/>
      <point x="1041" y="781"/>
      <point x="1048" y="778"/>
      <point x="1051" y="773" type="curve" smooth="yes"/>
      <point x="1056" y="766"/>
      <point x="1058" y="760"/>
      <point x="1058" y="754" type="curve" smooth="yes"/>
      <point x="1058" y="735"/>
      <point x="1049" y="725"/>
    </contour>
  </outline>
</glyph>
<glyph name="_dot1" format="2">
  <anchor x="0" y="-157" name="_above"/>
  <anchor x="0" y="157" name="_below_unused"/>
  <anchor x="0" y="0" name="_center"/>
  <outline>
    <contour>
      <point x="0" y="92" type="curve"/>
      <point x="-92" y="0" type="line"/>
      <point x="-55" y="-25"/>
      <point x="-24" y="-56"/>
      <point x="0" y="-92" type="curve"/>
      <point x="92" y="0" type="line"/>
      <point x="67" y="36"/>
      <point x="36" y="66"/>
    </contour>
  </outline>
</glyph>
<glyph name="_heth-med.1" format="2">
  <advance width="1212"/>
  <anchor x="705" y="480" name="aboveleft"/>
  <anchor x="765" y="-165" name="b.U0331_2"/>
  <anchor x="870" y="-120" name="b.U0740"/>
  <anchor x="720" y="-135" name="belowleft"/>
  <anchor x="705" y="480" name="t.U0656"/>
  <outline>
    <contour>
      <point x="866" y="-12" type="curve"/>
      <point x="904" y="175" type="line"/>
      <point x="983" y="90"/>
      <point x="1077" y="28"/>
      <point x="1187" y="-12" type="curve"/>
      <point x="1187" y="126" type="line" smooth="yes"/>
      <point x="1187" y="146"/>
      <point x="1141" y="170"/>
      <point x="1106" y="191" type="curve"/>
      <point x="1007" y="258"/>
      <point x="931" y="316"/>
      <point x="877" y="366" type="curve"/>
      <point x="836" y="175" type="line"/>
      <point x="775" y="186"/>
      <point x="718" y="213"/>
      <point x="665" y="256" type="curve" smooth="yes"/>
      <point x="654" y="265"/>
      <point x="611" y="307"/>
      <point x="536" y="384" type="curve"/>
      <point x="493" y="158" type="line"/>
      <point x="213" y="158" type="line" smooth="yes"/>
      <point x="168" y="158"/>
      <point x="131" y="169"/>
      <point x="103" y="191" type="curve" smooth="yes"/>
      <point x="84" y="205"/>
      <point x="69" y="225"/>
      <point x="57" y="251" type="curve" smooth="yes"/>
      <point x="47" y="273"/>
      <point x="41" y="284"/>
      <point x="40" y="284" type="curve" smooth="yes"/>
      <point x="22" y="284"/>
      <point x="13" y="256"/>
      <point x="13" y="199" type="curve" smooth="yes"/>
      <point x="13" y="112"/>
      <point x="36" y="54"/>
      <point x="83" y="25" type="curve" smooth="yes"/>
      <point x="110" y="8"/>
      <point x="153" y="0"/>
      <point x="213" y="0" type="curve" smooth="yes"/>
      <point x="534" y="0" type="line"/>
      <point x="562" y="158" type="line"/>
      <point x="623" y="78"/>
      <point x="724" y="21"/>
    </contour>
  </outline>
</glyph>
<glyph name="_smDotsquare" format="2">
  <advance width="1045"/>
  <anchor x="705" y="-135" name="b.U0325_3"/>
  <anchor x="675" y="-113" name="b.U0331_2"/>
  <anchor x="720" y="-135" name="b.U0740"/>
  <anchor x="675" y="735" name="m.U030a_1"/>
  <anchor x="690" y="735" name="t.U0656"/>
  <outline>
    <contour>
      <point x="249" y="0" type="curve" smooth="yes"/>
      <point x="998" y="0" type="line"/>
      <point x="998" y="600" type="line" smooth="yes"/>
      <point x="998" y="647"/>
      <point x="994" y="670"/>
      <point x="985" y="670" type="curve" smooth="yes"/>
      <point x="986" y="670"/>
      <point x="979" y="658"/>
      <point x="963" y="635" type="curve" smooth="yes"/>
      <point x="947" y="612"/>
      <point x="920" y="600"/>
      <point x="882" y="600" type="curve" smooth="yes"/>
      <point x="562" y="600" type="line" smooth="yes"/>
      <point x="517" y="600"/>
      <point x="482" y="606"/>
      <point x="459" y="618" type="curve" smooth="yes"/>
      <point x="443" y="626"/>
      <point x="432" y="637"/>
      <point x="426" y="652" type="curve" smooth="yes"/>
      <point x="421" y="664"/>
      <point x="417" y="670"/>
      <point x="415" y="670" type="curve" smooth="yes"/>
      <point x="400" y="670"/>
      <point x="393" y="641"/>
      <point x="393" y="583" type="curve" smooth="yes"/>
      <point x="393" y="522"/>
      <point x="411" y="482"/>
      <point x="447" y="461" type="curve" smooth="yes"/>
      <point x="470" y="448"/>
      <point x="509" y="442"/>
      <point x="562" y="442" type="curve" smooth="yes"/>
      <point x="840" y="442" type="line"/>
      <point x="840" y="158" type="line"/>
      <point x="249" y="158" type="line" smooth="yes"/>
      <point x="204" y="158"/>
      <point x="167" y="169"/>
      <point x="139" y="191" type="curve" smooth="yes"/>
      <point x="120" y="205"/>
      <point x="105" y="225"/>
      <point x="93" y="251" type="curve" smooth="yes"/>
      <point x="83" y="273"/>
      <point x="77" y="284"/>
      <point x="76" y="284" type="curve" smooth="yes"/>
      <point x="58" y="284"/>
      <point x="49" y="256"/>
      <point x="49" y="199" type="curve" smooth="yes"/>
      <point x="49" y="112"/>
      <point x="72" y="54"/>
      <point x="119" y="25" type="curve" smooth="yes"/>
      <point x="146" y="8"/>
      <point x="189" y="0"/>
    </contour>
  </outline>
</glyph>
<glyph name="alaph-syriac.fin2" format="2">
  <advance width="555"/>
  <anchor x="225" y="975" name="above"/>
  <anchor x="210" y="960" name="aboveleft"/>
  <anchor x="375" y="-270" name="b.U0740"/>
  <anchor x="255" y="-345" name="below"/>
  <anchor x="255" y="-375" name="belowleft"/>
  <outline>
    <contour>
      <point x="236" y="-263" type="curve" smooth="yes"/>
      <point x="242" y="-263"/>
      <point x="245" y="-249"/>
      <point x="245" y="-220" type="curve" smooth="yes"/>
      <point x="245" y="0" type="line"/>
      <point x="555" y="0" type="line"/>
      <point x="555" y="158" type="line"/>
      <point x="289" y="158" type="line"/>
      <point x="341" y="452"/>
      <point x="367" y="623"/>
      <point x="367" y="671" type="curve" smooth="yes"/>
      <point x="367" y="721"/>
      <point x="356" y="767"/>
      <point x="334" y="808" type="curve" smooth="yes"/>
      <point x="308" y="857"/>
      <point x="273" y="882"/>
      <point x="230" y="882" type="curve" smooth="yes"/>
      <point x="169" y="882"/>
      <point x="104" y="809"/>
      <point x="104" y="744" type="curve" smooth="yes"/>
      <point x="104" y="689"/>
      <point x="133" y="663"/>
      <point x="192" y="665" type="curve" smooth="yes"/>
      <point x="232" y="666" type="line"/>
      <point x="280" y="661"/>
      <point x="304" y="626"/>
      <point x="304" y="562" type="curve" smooth="yes"/>
      <point x="304" y="446"/>
      <point x="145" y="207"/>
      <point x="41" y="162" type="curve"/>
      <point x="41" y="-2" type="line"/>
      <point x="78" y="-8"/>
      <point x="113" y="-35"/>
      <point x="146" y="-83" type="curve" smooth="yes"/>
      <point x="173" y="-122"/>
      <point x="194" y="-165"/>
      <point x="209" y="-212" type="curve" smooth="yes"/>
      <point x="219" y="-246"/>
      <point x="228" y="-263"/>
    </contour>
  </outline>
</glyph>
<glyph name="alaph-syriac.fina" format="2">
  <advance width="581"/>
  <anchor x="259" y="975" name="above"/>
  <anchor x="50" y="975" name="aboveleft"/>
  <anchor x="331" y="-360" name="below"/>
  <anchor x="50" y="-360" name="belowleft"/>
  <outline>
    <component base="alaph-syriac"/>
    <contour>
      <point x="505" y="145" type="line"/>
      <point x="505" y="0" type="line"/>
      <point x="601" y="0" type="line"/>
      <point x="601" y="145" type="line"/>
    </contour>
    <contour>
      <point x="344" y="53" type="line"/>
      <point x="101" y="129" type="line"/>
      <point x="101" y="66"/>
      <point x="124" y="16"/>
      <point x="148" y="1" type="curve" smooth="yes"/>
      <point x="309" y="-101"/>
      <point x="299" y="-234"/>
      <point x="331" y="-234" type="curve" smooth="yes"/>
      <point x="339" y="-234"/>
      <point x="344" y="-228"/>
      <point x="344" y="-210" type="curve" smooth="yes"/>
    </contour>
  </outline>
</glyph>
<glyph name="beth-syriac.init" format="2">
  <advance width="855"/>
  <anchor x="480" y="735" name="above"/>
  <anchor x="465" y="735" name="aboveleft"/>
  <anchor x="525" y="-135" name="b.U0740"/>
  <anchor x="510" y="-120" name="below"/>
  <anchor x="495" y="-120" name="belowleft"/>
  <outline>
    <contour>
      <point x="0" y="0" type="line"/>
      <point x="797" y="0" type="line"/>
      <point x="797" y="600" type="line" smooth="yes"/>
      <point x="797" y="647"/>
      <point x="792" y="670"/>
      <point x="783" y="670" type="curve" smooth="yes"/>
      <point x="785" y="670"/>
      <point x="778" y="658"/>
      <point x="762" y="635" type="curve" smooth="yes"/>
      <point x="746" y="612"/>
      <point x="719" y="600"/>
      <point x="680" y="600" type="curve" smooth="yes"/>
      <point x="361" y="600" type="line" smooth="yes"/>
      <point x="316" y="600"/>
      <point x="281" y="606"/>
      <point x="258" y="618" type="curve" smooth="yes"/>
      <point x="242" y="626"/>
      <point x="231" y="637"/>
      <point x="225" y="652" type="curve" smooth="yes"/>
      <point x="220" y="664"/>
      <point x="216" y="670"/>
      <point x="214" y="670" type="curve" smooth="yes"/>
      <point x="199" y="670"/>
      <point x="192" y="641"/>
      <point x="192" y="583" type="curve" smooth="yes"/>
      <point x="192" y="522"/>
      <point x="210" y="482"/>
      <point x="246" y="461" type="curve" smooth="yes"/>
      <point x="269" y="448"/>
      <point x="308" y="442"/>
      <point x="361" y="442" type="curve" smooth="yes"/>
      <point x="639" y="442" type="line"/>
      <point x="639" y="158" type="line"/>
      <point x="0" y="158" type="line"/>
    </contour>
  </outline>
</glyph>
<glyph name="dalath_hbasaEsasadotted-syriac.fina" format="2">
  <advance width="736"/>
  <anchor x="315" y="735" name="above"/>
  <anchor x="405" y="-555" name="aboveleft"/>
  <anchor x="390" y="-405" name="b.U0325_3"/>
  <anchor x="0" y="0" name="b.U0740"/>
  <anchor x="375" y="-405" name="below"/>
  <outline>
    <contour>
      <point x="140" y="0" type="line"/>
      <point x="650" y="0" type="line"/>
      <point x="664" y="63" type="line"/>
      <point x="701" y="0" type="line"/>
      <point x="736" y="0" type="line"/>
      <point x="736" y="158" type="line"/>
      <point x="664" y="158" type="line"/>
      <point x="664" y="162" type="line" smooth="yes"/>
      <point x="666" y="459"/>
      <point x="538" y="608"/>
      <point x="280" y="608" type="curve" smooth="yes"/>
      <point x="223" y="608"/>
      <point x="175" y="596"/>
      <point x="138" y="573" type="curve"/>
      <point x="138" y="403" type="line" smooth="yes"/>
      <point x="138" y="370"/>
      <point x="143" y="354"/>
      <point x="152" y="354" type="curve" smooth="yes"/>
      <point x="150" y="354"/>
      <point x="161" y="368"/>
      <point x="184" y="395" type="curve" smooth="yes"/>
      <point x="207" y="422"/>
      <point x="243" y="438"/>
      <point x="290" y="441" type="curve" smooth="yes"/>
      <point x="350" y="446"/>
      <point x="401" y="419"/>
      <point x="444" y="362" type="curve" smooth="yes"/>
      <point x="479" y="315"/>
      <point x="496" y="272"/>
      <point x="495" y="233" type="curve" smooth="yes"/>
      <point x="492" y="158" type="line"/>
      <point x="140" y="158" type="line"/>
    </contour>
    <contour>
      <point x="221" y="-298" type="line"/>
      <point x="379" y="-298" type="line"/>
      <point x="379" y="-139" type="line"/>
      <point x="221" y="-139" type="line"/>
    </contour>
    <contour>
      <point x="511" y="-341" type="curve" smooth="yes"/>
      <point x="530" y="-341"/>
      <point x="545" y="-327"/>
      <point x="556" y="-300" type="curve" smooth="yes"/>
      <point x="565" y="-278"/>
      <point x="570" y="-256"/>
      <point x="570" y="-234" type="curve" smooth="yes"/>
      <point x="570" y="-216"/>
      <point x="566" y="-195"/>
      <point x="557" y="-171" type="curve" smooth="yes"/>
      <point x="546" y="-142"/>
      <point x="533" y="-128"/>
      <point x="518" y="-128" type="curve" smooth="yes"/>
      <point x="499" y="-128"/>
      <point x="483" y="-143"/>
      <point x="471" y="-172" type="curve" smooth="yes"/>
      <point x="462" y="-195"/>
      <point x="457" y="-217"/>
      <point x="457" y="-240" type="curve" smooth="yes"/>
      <point x="457" y="-259"/>
      <point x="461" y="-280"/>
      <point x="470" y="-301" type="curve" smooth="yes"/>
      <point x="481" y="-328"/>
      <point x="495" y="-341"/>
    </contour>
  </outline>
</glyph>
<glyph name="dalath_hbasaEsasadotted-syriac" format="2">
  <advance width="748"/>
  <anchor x="300" y="735" name="above"/>
  <anchor x="345" y="-405" name="b.U0325_3"/>
  <anchor x="0" y="0" name="b.U0740"/>
  <anchor x="315" y="-390" name="below"/>
  <anchor x="285" y="705" name="m.U030a_1"/>
  <outline>
    <contour>
      <point x="140" y="0" type="line"/>
      <point x="629" y="0" type="line"/>
      <point x="652" y="51"/>
      <point x="664" y="105"/>
      <point x="664" y="162" type="curve" smooth="yes"/>
      <point x="664" y="288"/>
      <point x="631" y="393"/>
      <point x="564" y="476" type="curve" smooth="yes"/>
      <point x="493" y="564"/>
      <point x="399" y="608"/>
      <point x="280" y="608" type="curve" smooth="yes"/>
      <point x="223" y="608"/>
      <point x="175" y="596"/>
      <point x="138" y="573" type="curve"/>
      <point x="138" y="403" type="line" smooth="yes"/>
      <point x="138" y="370"/>
      <point x="143" y="354"/>
      <point x="152" y="354" type="curve" smooth="yes"/>
      <point x="155" y="354"/>
      <point x="160" y="361"/>
      <point x="168" y="376" type="curve" smooth="yes"/>
      <point x="177" y="394"/>
      <point x="189" y="408"/>
      <point x="203" y="418" type="curve" smooth="yes"/>
      <point x="224" y="433"/>
      <point x="251" y="440"/>
      <point x="286" y="440" type="curve" smooth="yes"/>
      <point x="352" y="440"/>
      <point x="406" y="414"/>
      <point x="449" y="361" type="curve" smooth="yes"/>
      <point x="475" y="330"/>
      <point x="493" y="296"/>
      <point x="502" y="260" type="curve" smooth="yes"/>
      <point x="513" y="219"/>
      <point x="515" y="185"/>
      <point x="508" y="158" type="curve"/>
      <point x="140" y="158" type="line"/>
    </contour>
    <contour>
      <point x="221" y="-298" type="line"/>
      <point x="379" y="-298" type="line"/>
      <point x="379" y="-139" type="line"/>
      <point x="221" y="-139" type="line"/>
    </contour>
    <contour>
      <point x="511" y="-354" type="curve" smooth="yes"/>
      <point x="530" y="-354"/>
      <point x="546" y="-340"/>
      <point x="557" y="-312" type="curve" smooth="yes"/>
      <point x="566" y="-290"/>
      <point x="571" y="-268"/>
      <point x="571" y="-246" type="curve" smooth="yes"/>
      <point x="571" y="-228"/>
      <point x="566" y="-207"/>
      <point x="557" y="-183" type="curve" smooth="yes"/>
      <point x="546" y="-154"/>
      <point x="534" y="-140"/>
      <point x="519" y="-140" type="curve" smooth="yes"/>
      <point x="500" y="-140"/>
      <point x="484" y="-155"/>
      <point x="472" y="-184" type="curve" smooth="yes"/>
      <point x="463" y="-207"/>
      <point x="458" y="-229"/>
      <point x="458" y="-252" type="curve" smooth="yes"/>
      <point x="458" y="-271"/>
      <point x="462" y="-292"/>
      <point x="471" y="-313" type="curve" smooth="yes"/>
      <point x="482" y="-340"/>
      <point x="495" y="-354"/>
    </contour>
  </outline>
</glyph>
<glyph name="e-syriac.fina" format="2">
  <advance width="1275"/>
  <anchor x="510" y="960" name="above"/>
  <anchor x="510" y="990" name="aboveleft"/>
  <anchor x="615" y="-135" name="b.U0325_3"/>
  <anchor x="750" y="-135" name="b.U0740"/>
  <anchor x="630" y="-135" name="below"/>
  <outline>
    <contour>
      <point x="242" y="0" type="curve" smooth="yes"/>
      <point x="809" y="0" type="line"/>
      <point x="852" y="111" type="line"/>
      <point x="903" y="59"/>
      <point x="946" y="27"/>
      <point x="980" y="14" type="curve" smooth="yes"/>
      <point x="1005" y="5"/>
      <point x="1047" y="0"/>
      <point x="1107" y="0" type="curve" smooth="yes"/>
      <point x="1275" y="0" type="line"/>
      <point x="1275" y="158" type="line"/>
      <point x="1122" y="158" type="line" smooth="yes"/>
      <point x="1076" y="158"/>
      <point x="1032" y="176"/>
      <point x="989" y="211" type="curve" smooth="yes"/>
      <point x="914" y="273"/>
      <point x="841" y="352"/>
      <point x="769" y="447" type="curve" smooth="yes"/>
      <point x="690" y="550"/>
      <point x="640" y="621"/>
      <point x="619" y="660" type="curve" smooth="yes"/>
      <point x="584" y="723"/>
      <point x="565" y="787"/>
      <point x="564" y="853" type="curve" smooth="yes"/>
      <point x="564" y="875"/>
      <point x="562" y="886"/>
      <point x="559" y="886" type="curve" smooth="yes"/>
      <point x="555" y="886"/>
      <point x="542" y="869"/>
      <point x="521" y="836" type="curve" smooth="yes"/>
      <point x="451" y="730"/>
      <point x="416" y="672"/>
      <point x="416" y="662" type="curve" smooth="yes"/>
      <point x="416" y="630"/>
      <point x="435" y="591"/>
      <point x="473" y="544" type="curve" smooth="yes"/>
      <point x="612" y="364"/>
      <point x="717" y="235"/>
      <point x="788" y="158" type="curve"/>
      <point x="242" y="158" type="line" smooth="yes"/>
      <point x="196" y="158"/>
      <point x="159" y="169"/>
      <point x="131" y="191" type="curve" smooth="yes"/>
      <point x="112" y="205"/>
      <point x="97" y="225"/>
      <point x="86" y="251" type="curve" smooth="yes"/>
      <point x="76" y="273"/>
      <point x="70" y="284"/>
      <point x="68" y="284" type="curve" smooth="yes"/>
      <point x="50" y="284"/>
      <point x="41" y="256"/>
      <point x="41" y="199" type="curve" smooth="yes"/>
      <point x="41" y="112"/>
      <point x="64" y="54"/>
      <point x="111" y="25" type="curve" smooth="yes"/>
      <point x="138" y="8"/>
      <point x="181" y="0"/>
    </contour>
  </outline>
</glyph>
<glyph name="e-syriac.medi" format="2">
  <advance width="1038"/>
  <anchor x="315" y="-120" name="b.U0325_3"/>
  <anchor x="330" y="-135" name="b.U0331_2"/>
  <anchor x="525" y="-135" name="b.U0740"/>
  <anchor x="270" y="990" name="m.U030a_1"/>
  <anchor x="300" y="1005" name="t.U0656"/>
  <outline>
    <contour>
      <point x="0" y="0" type="line"/>
      <point x="572" y="0" type="line"/>
      <point x="615" y="111" type="line"/>
      <point x="667" y="59"/>
      <point x="710" y="27"/>
      <point x="744" y="14" type="curve" smooth="yes"/>
      <point x="768" y="5"/>
      <point x="810" y="0"/>
      <point x="870" y="0" type="curve" smooth="yes"/>
      <point x="1038" y="0" type="line"/>
      <point x="1038" y="158" type="line"/>
      <point x="886" y="158" type="line" smooth="yes"/>
      <point x="839" y="158"/>
      <point x="795" y="176"/>
      <point x="753" y="211" type="curve" smooth="yes"/>
      <point x="678" y="273"/>
      <point x="605" y="352"/>
      <point x="532" y="447" type="curve" smooth="yes"/>
      <point x="453" y="551"/>
      <point x="403" y="622"/>
      <point x="382" y="659" type="curve" smooth="yes"/>
      <point x="347" y="722"/>
      <point x="329" y="787"/>
      <point x="328" y="853" type="curve" smooth="yes"/>
      <point x="327" y="875"/>
      <point x="325" y="886"/>
      <point x="322" y="886" type="curve" smooth="yes"/>
      <point x="319" y="886"/>
      <point x="306" y="869"/>
      <point x="284" y="836" type="curve" smooth="yes"/>
      <point x="215" y="730"/>
      <point x="180" y="672"/>
      <point x="180" y="662" type="curve" smooth="yes"/>
      <point x="180" y="630"/>
      <point x="199" y="591"/>
      <point x="236" y="544" type="curve" smooth="yes"/>
      <point x="376" y="364"/>
      <point x="481" y="235"/>
      <point x="552" y="158" type="curve"/>
      <point x="0" y="158" type="line"/>
    </contour>
  </outline>
</glyph>
<glyph name="equal.latn" format="2">
  <advance width="757"/>
  <outline>
    <contour>
      <point x="683" y="534" type="line"/>
      <point x="74" y="534" type="line"/>
      <point x="74" y="428" type="line"/>
      <point x="683" y="428" type="line"/>
    </contour>
    <contour>
      <point x="683" y="283" type="line"/>
      <point x="74" y="283" type="line"/>
      <point x="74" y="179" type="line"/>
      <point x="683" y="179" type="line"/>
    </contour>
  </outline>
</glyph>
<glyph name="gamal-syriac.init" format="2">
  <advance width="1019"/>
  <anchor x="375" y="-150" name="b.U0325_3"/>
  <anchor x="420" y="-135" name="b.U0331_2"/>
  <anchor x="510" y="-180" name="b.U0740"/>
  <anchor x="570" y="795" name="m.U030a_1"/>
  <anchor x="645" y="825" name="t.U0656"/>
  <outline>
    <contour>
      <point x="934" y="-470" type="line"/>
      <point x="1076" y="-470" type="line"/>
      <point x="1076" y="-329" type="line"/>
      <point x="940" y="-329" type="line"/>
      <point x="349" y="879" type="line" smooth="yes"/>
      <point x="336" y="905"/>
      <point x="329" y="934"/>
      <point x="327" y="967" type="curve" smooth="yes"/>
      <point x="326" y="991"/>
      <point x="324" y="1003"/>
      <point x="322" y="1003" type="curve" smooth="yes"/>
      <point x="319" y="1003"/>
      <point x="306" y="987"/>
      <point x="284" y="954" type="curve" smooth="yes"/>
      <point x="215" y="847"/>
      <point x="180" y="789"/>
      <point x="180" y="780" type="curve" smooth="yes"/>
      <point x="180" y="769"/>
      <point x="199" y="730"/>
      <point x="236" y="662" type="curve" smooth="yes"/>
      <point x="515" y="158" type="line"/>
      <point x="0" y="158" type="line"/>
      <point x="0" y="0" type="line"/>
      <point x="643" y="0" type="line"/>
      <point x="934" y="-366" type="line"/>
    </contour>
  </outline>
</glyph>
<glyph name="gamalgarshuni-syriac.medi" format="2">
  <advance width="936"/>
  <anchor x="645" y="855" name="above"/>
  <anchor x="315" y="-150" name="b.U0325_3"/>
  <anchor x="300" y="-135" name="b.U0740"/>
  <anchor x="270" y="-165" name="below"/>
  <anchor x="585" y="840" name="m.U030a_1"/>
  <outline>
    <contour>
      <point x="948" y="-470" type="line"/>
      <point x="1090" y="-470" type="line"/>
      <point x="1090" y="-329" type="line"/>
      <point x="954" y="-329" type="line"/>
      <point x="793" y="0" type="line"/>
      <point x="965" y="0" type="line"/>
      <point x="965" y="158" type="line"/>
      <point x="716" y="158" type="line"/>
      <point x="363" y="879" type="line" smooth="yes"/>
      <point x="350" y="905"/>
      <point x="343" y="934"/>
      <point x="341" y="967" type="curve" smooth="yes"/>
      <point x="340" y="991"/>
      <point x="338" y="1003"/>
      <point x="336" y="1003" type="curve" smooth="yes"/>
      <point x="333" y="1003"/>
      <point x="320" y="987"/>
      <point x="298" y="954" type="curve" smooth="yes"/>
      <point x="229" y="847"/>
      <point x="194" y="789"/>
      <point x="194" y="780" type="curve" smooth="yes"/>
      <point x="194" y="769"/>
      <point x="213" y="730"/>
      <point x="250" y="662" type="curve" smooth="yes"/>
      <point x="377" y="433" type="line"/>
      <point x="166" y="158" type="line"/>
      <point x="2" y="158" type="line"/>
      <point x="2" y="0" type="line"/>
      <point x="657" y="0" type="line"/>
      <point x="948" y="-366" type="line"/>
    </contour>
    <contour>
      <point x="250" y="158" type="line"/>
      <point x="413" y="368" type="line"/>
      <point x="529" y="158" type="line"/>
    </contour>
  </outline>
</glyph>
<glyph name="he-syriac.fina" format="2">
  <advance width="972"/>
  <anchor x="450" y="765" name="above"/>
  <anchor x="435" y="750" name="aboveleft"/>
  <anchor x="495" y="-135" name="b.U0325_3"/>
  <anchor x="480" y="-150" name="b.U0740"/>
  <anchor x="450" y="-150" name="below"/>
  <outline>
    <contour>
      <point x="874" y="-148" type="curve" smooth="yes"/>
      <point x="882" y="-148"/>
      <point x="886" y="-138"/>
      <point x="886" y="-117" type="curve" smooth="yes"/>
      <point x="884" y="0" type="line"/>
      <point x="972" y="0" type="line"/>
      <point x="972" y="158" type="line"/>
      <point x="883" y="158" type="line"/>
      <point x="878" y="616" type="line" smooth="yes"/>
      <point x="878" y="636"/>
      <point x="875" y="646"/>
      <point x="868" y="646" type="curve" smooth="yes"/>
      <point x="865" y="646"/>
      <point x="855" y="638"/>
      <point x="837" y="623" type="curve" smooth="yes"/>
      <point x="819" y="608"/>
      <point x="796" y="600"/>
      <point x="769" y="600" type="curve" smooth="yes"/>
      <point x="333" y="600" type="line" smooth="yes"/>
      <point x="269" y="600"/>
      <point x="216" y="564"/>
      <point x="173" y="491" type="curve" smooth="yes"/>
      <point x="136" y="429"/>
      <point x="117" y="365"/>
      <point x="117" y="298" type="curve" smooth="yes"/>
      <point x="117" y="205"/>
      <point x="145" y="130"/>
      <point x="201" y="74" type="curve" smooth="yes"/>
      <point x="255" y="19"/>
      <point x="325" y="-8"/>
      <point x="412" y="-8" type="curve" smooth="yes"/>
      <point x="532" y="-8"/>
      <point x="611" y="40"/>
      <point x="650" y="137" type="curve" smooth="yes"/>
      <point x="673" y="195"/>
      <point x="685" y="297"/>
      <point x="685" y="442" type="curve"/>
      <point x="812" y="442" type="line"/>
      <point x="858" y="-118" type="line" smooth="yes"/>
      <point x="860" y="-138"/>
      <point x="865" y="-148"/>
    </contour>
    <contour>
      <point x="412" y="150" type="curve" smooth="yes"/>
      <point x="368" y="150"/>
      <point x="330" y="170"/>
      <point x="297" y="209" type="curve" smooth="yes"/>
      <point x="266" y="246"/>
      <point x="251" y="286"/>
      <point x="251" y="329" type="curve" smooth="yes"/>
      <point x="251" y="353"/>
      <point x="258" y="377"/>
      <point x="273" y="401" type="curve" smooth="yes"/>
      <point x="291" y="428"/>
      <point x="313" y="442"/>
      <point x="338" y="442" type="curve" smooth="yes"/>
      <point x="574" y="442" type="line"/>
      <point x="580" y="410"/>
      <point x="583" y="383"/>
      <point x="583" y="360" type="curve" smooth="yes"/>
      <point x="583" y="220"/>
      <point x="526" y="150"/>
    </contour>
  </outline>
</glyph>
<glyph name="he_yudh-syriac" format="2">
  <advance width="1211"/>
  <anchor x="705" y="-150" name="b.U0325_3_2_ligComponent_1"/>
  <anchor x="225" y="-180" name="b.U0325_3_2_ligComponent_2"/>
  <anchor x="750" y="-135" name="b.U0331_2_2_ligComponent_1"/>
  <anchor x="240" y="-165" name="b.U0331_2_2_ligComponent_2"/>
  <anchor x="735" y="705" name="m.U030a_1_2_ligComponent_1"/>
  <anchor x="210" y="705" name="m.U030a_1_2_ligComponent_2"/>
  <anchor x="720" y="765" name="m.U0656_ligComponent_1"/>
  <anchor x="165" y="915" name="m.U0656_ligComponent_2"/>
  <outline>
    <contour>
      <point x="1152" y="-148" type="curve" smooth="yes"/>
      <point x="1160" y="-148"/>
      <point x="1164" y="-138"/>
      <point x="1164" y="-117" type="curve" smooth="yes"/>
      <point x="1156" y="616" type="line" smooth="yes"/>
      <point x="1156" y="636"/>
      <point x="1153" y="646"/>
      <point x="1146" y="646" type="curve" smooth="yes"/>
      <point x="1143" y="646"/>
      <point x="1133" y="638"/>
      <point x="1115" y="623" type="curve" smooth="yes"/>
      <point x="1097" y="608"/>
      <point x="1074" y="600"/>
      <point x="1047" y="600" type="curve" smooth="yes"/>
      <point x="610" y="600" type="line" smooth="yes"/>
      <point x="557" y="600"/>
      <point x="511" y="574"/>
      <point x="471" y="522" type="curve" smooth="yes"/>
      <point x="437" y="477"/>
      <point x="414" y="424"/>
      <point x="402" y="362" type="curve"/>
      <point x="215" y="531" type="line" smooth="yes"/>
      <point x="196" y="548"/>
      <point x="182" y="557"/>
      <point x="174" y="557" type="curve" smooth="yes"/>
      <point x="149" y="557"/>
      <point x="60" y="447"/>
      <point x="60" y="431" type="curve" smooth="yes"/>
      <point x="60" y="422"/>
      <point x="72" y="407"/>
      <point x="97" y="385" type="curve" smooth="yes"/>
      <point x="306" y="197" type="line"/>
      <point x="93" y="-35" type="line" smooth="yes"/>
      <point x="76" y="-53"/>
      <point x="68" y="-65"/>
      <point x="68" y="-71" type="curve" smooth="yes"/>
      <point x="68" y="-84"/>
      <point x="75" y="-90"/>
      <point x="88" y="-90" type="curve" smooth="yes"/>
      <point x="93" y="-90"/>
      <point x="108" y="-78"/>
      <point x="131" y="-53" type="curve" smooth="yes"/>
      <point x="400" y="234" type="line"/>
      <point x="425" y="85"/>
      <point x="538" y="-8"/>
      <point x="690" y="-8" type="curve" smooth="yes"/>
      <point x="810" y="-8"/>
      <point x="889" y="40"/>
      <point x="928" y="137" type="curve" smooth="yes"/>
      <point x="951" y="195"/>
      <point x="962" y="297"/>
      <point x="962" y="442" type="curve"/>
      <point x="1090" y="442" type="line"/>
      <point x="1136" y="-118" type="line" smooth="yes"/>
      <point x="1137" y="-138"/>
      <point x="1143" y="-148"/>
    </contour>
    <contour>
      <point x="690" y="150" type="curve" smooth="yes"/>
      <point x="646" y="150"/>
      <point x="608" y="170"/>
      <point x="575" y="209" type="curve" smooth="yes"/>
      <point x="544" y="246"/>
      <point x="529" y="286"/>
      <point x="529" y="329" type="curve" smooth="yes"/>
      <point x="529" y="353"/>
      <point x="536" y="377"/>
      <point x="551" y="401" type="curve" smooth="yes"/>
      <point x="569" y="428"/>
      <point x="590" y="442"/>
      <point x="615" y="442" type="curve" smooth="yes"/>
      <point x="852" y="442" type="line"/>
      <point x="858" y="410"/>
      <point x="861" y="383"/>
      <point x="861" y="360" type="curve" smooth="yes"/>
      <point x="861" y="220"/>
      <point x="804" y="150"/>
    </contour>
  </outline>
</glyph>
<glyph name="heth-syriac.medi" format="2">
  <advance width="970"/>
  <anchor x="450" y="480" name="above"/>
  <anchor x="450" y="465" name="aboveleft"/>
  <anchor x="465" y="-120" name="b.U0325_3"/>
  <anchor x="570" y="-135" name="b.U0740"/>
  <anchor x="480" y="-120" name="below"/>
  <outline>
    <contour>
      <point x="609" y="-12" type="curve"/>
      <point x="647" y="175" type="line"/>
      <point x="755" y="58"/>
      <point x="849" y="0"/>
      <point x="929" y="0" type="curve" smooth="yes"/>
      <point x="970" y="0" type="line"/>
      <point x="970" y="158" type="line"/>
      <point x="929" y="158" type="line" smooth="yes"/>
      <point x="872" y="158"/>
      <point x="769" y="227"/>
      <point x="620" y="366" type="curve"/>
      <point x="579" y="175" type="line"/>
      <point x="518" y="186"/>
      <point x="461" y="213"/>
      <point x="409" y="256" type="curve" smooth="yes"/>
      <point x="398" y="265"/>
      <point x="355" y="307"/>
      <point x="279" y="384" type="curve"/>
      <point x="236" y="158" type="line"/>
      <point x="0" y="158" type="line"/>
      <point x="0" y="0" type="line"/>
      <point x="277" y="0" type="line"/>
      <point x="305" y="158" type="line"/>
      <point x="366" y="78"/>
      <point x="467" y="21"/>
    </contour>
  </outline>
</glyph>
<glyph name="kaph-syriac.init" format="2">
  <advance width="883"/>
  <anchor x="435" y="780" name="above"/>
  <anchor x="450" y="-135" name="b.U0325_3"/>
  <anchor x="450" y="-150" name="b.U0740"/>
  <anchor x="480" y="-165" name="below"/>
  <anchor x="465" y="720" name="m.U030a_1"/>
  <outline>
    <contour>
      <point x="0" y="0" type="line"/>
      <point x="740" y="0" type="line" smooth="yes"/>
      <point x="769" y="0"/>
      <point x="791" y="18"/>
      <point x="808" y="54" type="curve" smooth="yes"/>
      <point x="821" y="83"/>
      <point x="827" y="113"/>
      <point x="827" y="146" type="curve" smooth="yes"/>
      <point x="827" y="229"/>
      <point x="799" y="312"/>
      <point x="743" y="396" type="curve" smooth="yes"/>
      <point x="690" y="475"/>
      <point x="625" y="536"/>
      <point x="549" y="579" type="curve" smooth="yes"/>
      <point x="510" y="601"/>
      <point x="473" y="612"/>
      <point x="436" y="612" type="curve" smooth="yes"/>
      <point x="373" y="612"/>
      <point x="325" y="580"/>
      <point x="290" y="516" type="curve" smooth="yes"/>
      <point x="262" y="465"/>
      <point x="247" y="405"/>
      <point x="245" y="335" type="curve" smooth="yes"/>
      <point x="245" y="328"/>
      <point x="248" y="325"/>
      <point x="255" y="325" type="curve" smooth="yes"/>
      <point x="260" y="325"/>
      <point x="275" y="342"/>
      <point x="300" y="376" type="curve" smooth="yes"/>
      <point x="325" y="410"/>
      <point x="359" y="427"/>
      <point x="402" y="427" type="curve" smooth="yes"/>
      <point x="507" y="427"/>
      <point x="649" y="292"/>
      <point x="649" y="188" type="curve" smooth="yes"/>
      <point x="649" y="176"/>
      <point x="647" y="166"/>
      <point x="644" y="158" type="curve"/>
      <point x="0" y="158" type="line"/>
    </contour>
  </outline>
</glyph>
<glyph name="kaph-syriac.medi" format="2">
  <advance width="893"/>
  <anchor x="435" y="750" name="above"/>
  <anchor x="450" y="735" name="aboveleft"/>
  <anchor x="450" y="-135" name="b.U0325_3"/>
  <anchor x="450" y="-150" name="b.U0740"/>
  <anchor x="465" y="-165" name="below"/>
  <outline>
    <contour>
      <point x="0" y="0" type="line"/>
      <point x="813" y="0" type="line"/>
      <point x="820" y="46" type="line"/>
      <point x="856" y="0" type="line"/>
      <point x="893" y="0" type="line"/>
      <point x="893" y="158" type="line"/>
      <point x="827" y="158" type="line"/>
      <point x="824" y="239"/>
      <point x="795" y="320"/>
      <point x="739" y="401" type="curve" smooth="yes"/>
      <point x="686" y="477"/>
      <point x="623" y="536"/>
      <point x="549" y="579" type="curve" smooth="yes"/>
      <point x="510" y="601"/>
      <point x="473" y="612"/>
      <point x="436" y="612" type="curve" smooth="yes"/>
      <point x="373" y="612"/>
      <point x="325" y="580"/>
      <point x="290" y="516" type="curve" smooth="yes"/>
      <point x="262" y="465"/>
      <point x="247" y="405"/>
      <point x="245" y="335" type="curve" smooth="yes"/>
      <point x="245" y="328"/>
      <point x="248" y="325"/>
      <point x="255" y="325" type="curve" smooth="yes"/>
      <point x="260" y="325"/>
      <point x="274" y="342"/>
      <point x="299" y="376" type="curve" smooth="yes"/>
      <point x="324" y="410"/>
      <point x="358" y="427"/>
      <point x="402" y="427" type="curve" smooth="yes"/>
      <point x="507" y="427"/>
      <point x="649" y="292"/>
      <point x="649" y="188" type="curve" smooth="yes"/>
      <point x="649" y="176"/>
      <point x="647" y="166"/>
      <point x="644" y="158" type="curve"/>
      <point x="0" y="158" type="line"/>
    </contour>
  </outline>
</glyph>
<glyph name="lamadh-syriac.fina" format="2">
  <advance width="1225"/>
  <anchor x="855" y="870" name="above"/>
  <anchor x="885" y="975" name="aboveleft"/>
  <anchor x="630" y="-150" name="b.U0325_3"/>
  <anchor x="780" y="-150" name="b.U0740"/>
  <anchor x="675" y="-135" name="below"/>
  <outline>
    <contour>
      <point x="242" y="0" type="curve" smooth="yes"/>
      <point x="829" y="0" type="line" smooth="yes"/>
      <point x="856" y="0"/>
      <point x="877" y="6"/>
      <point x="891" y="18" type="curve"/>
      <point x="926" y="62" type="line"/>
      <point x="965" y="21"/>
      <point x="1013" y="0"/>
      <point x="1070" y="0" type="curve" smooth="yes"/>
      <point x="1225" y="0" type="line"/>
      <point x="1225" y="158" type="line"/>
      <point x="1139" y="158" type="line" smooth="yes"/>
      <point x="1080" y="158"/>
      <point x="1034" y="187"/>
      <point x="1000" y="244" type="curve" smooth="yes"/>
      <point x="548" y="988" type="line" smooth="yes"/>
      <point x="537" y="1007"/>
      <point x="531" y="1023"/>
      <point x="531" y="1037" type="curve" smooth="yes"/>
      <point x="531" y="1045"/>
      <point x="536" y="1060"/>
      <point x="547" y="1082" type="curve" smooth="yes"/>
      <point x="558" y="1103"/>
      <point x="563" y="1118"/>
      <point x="563" y="1125" type="curve" smooth="yes"/>
      <point x="563" y="1132"/>
      <point x="560" y="1135"/>
      <point x="555" y="1135" type="curve" smooth="yes"/>
      <point x="548" y="1135"/>
      <point x="518" y="1111"/>
      <point x="466" y="1062" type="curve" smooth="yes"/>
      <point x="405" y="1005" type="line"/>
      <point x="385" y="983"/>
      <point x="375" y="960"/>
      <point x="375" y="936" type="curve" smooth="yes"/>
      <point x="375" y="911"/>
      <point x="386" y="883"/>
      <point x="407" y="851" type="curve" smooth="yes"/>
      <point x="883" y="158" type="line"/>
      <point x="242" y="158" type="line" smooth="yes"/>
      <point x="196" y="158"/>
      <point x="159" y="169"/>
      <point x="131" y="191" type="curve" smooth="yes"/>
      <point x="112" y="205"/>
      <point x="97" y="225"/>
      <point x="86" y="251" type="curve" smooth="yes"/>
      <point x="76" y="273"/>
      <point x="70" y="284"/>
      <point x="68" y="284" type="curve" smooth="yes"/>
      <point x="50" y="284"/>
      <point x="41" y="256"/>
      <point x="41" y="199" type="curve" smooth="yes"/>
      <point x="41" y="112"/>
      <point x="64" y="54"/>
      <point x="111" y="25" type="curve" smooth="yes"/>
      <point x="138" y="8"/>
      <point x="181" y="0"/>
    </contour>
  </outline>
</glyph>
<glyph name="lamadh_alaph-syriac" format="2">
  <advance width="1511"/>
  <anchor x="1260" y="885" name="above_1"/>
  <anchor x="360" y="945" name="above_2"/>
  <anchor x="1125" y="-135" name="below_1"/>
  <anchor x="480" y="-135" name="below_2"/>
  <outline>
    <contour>
      <point x="20" y="-162" type="curve" smooth="yes"/>
      <point x="29" y="-162"/>
      <point x="55" y="-137"/>
      <point x="98" y="-87" type="curve" smooth="yes"/>
      <point x="171" y="0" type="line"/>
      <point x="1339" y="0" type="line" smooth="yes"/>
      <point x="1441" y="0"/>
      <point x="1492" y="34"/>
      <point x="1492" y="103" type="curve" smooth="yes"/>
      <point x="1492" y="150"/>
      <point x="1478" y="197"/>
      <point x="1450" y="244" type="curve" smooth="yes"/>
      <point x="998" y="988" type="line" smooth="yes"/>
      <point x="987" y="1007"/>
      <point x="981" y="1023"/>
      <point x="981" y="1037" type="curve" smooth="yes"/>
      <point x="981" y="1045"/>
      <point x="986" y="1060"/>
      <point x="997" y="1082" type="curve" smooth="yes"/>
      <point x="1008" y="1103"/>
      <point x="1013" y="1118"/>
      <point x="1013" y="1125" type="curve" smooth="yes"/>
      <point x="1013" y="1132"/>
      <point x="1010" y="1135"/>
      <point x="1005" y="1135" type="curve" smooth="yes"/>
      <point x="998" y="1135"/>
      <point x="968" y="1111"/>
      <point x="916" y="1062" type="curve" smooth="yes"/>
      <point x="855" y="1005" type="line"/>
      <point x="835" y="983"/>
      <point x="825" y="960"/>
      <point x="825" y="936" type="curve" smooth="yes"/>
      <point x="825" y="911"/>
      <point x="836" y="883"/>
      <point x="857" y="851" type="curve" smooth="yes"/>
      <point x="1333" y="158" type="line"/>
      <point x="302" y="158" type="line"/>
      <point x="436" y="333"/>
      <point x="503" y="514"/>
      <point x="503" y="701" type="curve" smooth="yes"/>
      <point x="503" y="744"/>
      <point x="493" y="786"/>
      <point x="474" y="826" type="curve" smooth="yes"/>
      <point x="450" y="875"/>
      <point x="419" y="900"/>
      <point x="380" y="900" type="curve" smooth="yes"/>
      <point x="308" y="900"/>
      <point x="226" y="816"/>
      <point x="226" y="744" type="curve" smooth="yes"/>
      <point x="226" y="712"/>
      <point x="235" y="685"/>
      <point x="254" y="664" type="curve" smooth="yes"/>
      <point x="273" y="641"/>
      <point x="299" y="629"/>
      <point x="330" y="629" type="curve" smooth="yes"/>
      <point x="361" y="629"/>
      <point x="399" y="635"/>
      <point x="444" y="647" type="curve"/>
      <point x="447" y="632"/>
      <point x="448" y="619"/>
      <point x="448" y="610" type="curve" smooth="yes"/>
      <point x="448" y="439"/>
      <point x="314" y="203"/>
      <point x="45" y="-96" type="curve" smooth="yes"/>
      <point x="18" y="-127"/>
      <point x="4" y="-144"/>
      <point x="4" y="-145" type="curve" smooth="yes"/>
      <point x="4" y="-156"/>
      <point x="9" y="-162"/>
    </contour>
  </outline>
</glyph>
<glyph name="mim-syriac.cv17" format="2">
  <advance width="947"/>
  <anchor x="540" y="750" name="above"/>
  <anchor x="495" y="750" name="aboveleft"/>
  <anchor x="600" y="-150" name="b.U0740"/>
  <anchor x="570" y="-135" name="below"/>
  <anchor x="570" y="-150" name="belowleft"/>
  <outline>
    <contour>
      <point x="54" y="-167" type="curve"/>
      <point x="63" y="-167"/>
      <point x="73" y="-159"/>
      <point x="86" y="-142" type="curve" smooth="yes"/>
      <point x="194" y="0" type="line"/>
      <point x="916" y="0" type="line"/>
      <point x="916" y="106" type="line" smooth="yes"/>
      <point x="916" y="125"/>
      <point x="909" y="166"/>
      <point x="896" y="231" type="curve" smooth="yes"/>
      <point x="883" y="295"/>
      <point x="876" y="370"/>
      <point x="876" y="456" type="curve" smooth="yes"/>
      <point x="876" y="476"/>
      <point x="878" y="504"/>
      <point x="883" y="541" type="curve" smooth="yes"/>
      <point x="888" y="577"/>
      <point x="890" y="605"/>
      <point x="890" y="624" type="curve" smooth="yes"/>
      <point x="890" y="666"/>
      <point x="884" y="687"/>
      <point x="873" y="687" type="curve" smooth="yes"/>
      <point x="872" y="687"/>
      <point x="868" y="679"/>
      <point x="863" y="664" type="curve" smooth="yes"/>
      <point x="856" y="646"/>
      <point x="845" y="632"/>
      <point x="830" y="622" type="curve" smooth="yes"/>
      <point x="807" y="607"/>
      <point x="772" y="600"/>
      <point x="726" y="600" type="curve" smooth="yes"/>
      <point x="195" y="600" type="line" smooth="yes"/>
      <point x="150" y="600"/>
      <point x="115" y="607"/>
      <point x="92" y="622" type="curve" smooth="yes"/>
      <point x="76" y="632"/>
      <point x="65" y="646"/>
      <point x="59" y="664" type="curve" smooth="yes"/>
      <point x="54" y="679"/>
      <point x="50" y="687"/>
      <point x="48" y="687" type="curve" smooth="yes"/>
      <point x="33" y="687"/>
      <point x="26" y="652"/>
      <point x="26" y="583" type="curve" smooth="yes"/>
      <point x="26" y="521"/>
      <point x="37" y="480"/>
      <point x="60" y="461" type="curve" smooth="yes"/>
      <point x="76" y="448"/>
      <point x="108" y="442"/>
      <point x="155" y="442" type="curve" smooth="yes"/>
      <point x="379" y="442" type="line"/>
      <point x="56" y="-137" type="line" smooth="yes"/>
      <point x="50" y="-148"/>
      <point x="47" y="-155"/>
      <point x="47" y="-159" type="curve" smooth="yes"/>
      <point x="47" y="-162"/>
      <point x="49" y="-165"/>
    </contour>
    <contour>
      <point x="284" y="158" type="line"/>
      <point x="458" y="442" type="line"/>
      <point x="754" y="442" type="line"/>
      <point x="754" y="158" type="line"/>
    </contour>
  </outline>
</glyph>
<glyph name="nun-syriac.fina" format="2">
  <advance width="494"/>
  <anchor x="270" y="405" name="above"/>
  <anchor x="210" y="480" name="aboveleft"/>
  <anchor x="210" y="-570" name="b.U0325_3"/>
  <anchor x="225" y="-630" name="b.U0740"/>
  <anchor x="225" y="-615" name="below"/>
  <outline>
    <contour>
      <point x="400" y="-525" type="curve" smooth="yes"/>
      <point x="404" y="-525"/>
      <point x="406" y="-522"/>
      <point x="406" y="-515" type="curve" smooth="yes"/>
      <point x="406" y="-509"/>
      <point x="394" y="-485"/>
      <point x="370" y="-443" type="curve" smooth="yes"/>
      <point x="339" y="-386"/>
      <point x="316" y="-341"/>
      <point x="301" y="-310" type="curve" smooth="yes"/>
      <point x="255" y="-212"/>
      <point x="233" y="-109"/>
      <point x="236" y="0" type="curve"/>
      <point x="494" y="0" type="line"/>
      <point x="494" y="158" type="line"/>
      <point x="392" y="158" type="line" smooth="yes"/>
      <point x="323" y="158"/>
      <point x="270" y="164"/>
      <point x="235" y="176" type="curve" smooth="yes"/>
      <point x="180" y="195"/>
      <point x="145" y="231"/>
      <point x="129" y="284" type="curve" smooth="yes"/>
      <point x="122" y="305"/>
      <point x="116" y="316"/>
      <point x="111" y="316" type="curve" smooth="yes"/>
      <point x="104" y="316"/>
      <point x="101" y="303"/>
      <point x="101" y="276" type="curve" smooth="yes"/>
      <point x="101" y="11"/>
      <point x="146" y="-193"/>
      <point x="236" y="-334" type="curve" smooth="yes"/>
      <point x="318" y="-461"/>
      <point x="373" y="-525"/>
    </contour>
  </outline>
</glyph>
<glyph name="nun-syriac.init" format="2">
  <advance width="675"/>
  <anchor x="390" y="720" name="above"/>
  <anchor x="360" y="765" name="aboveleft"/>
  <anchor x="345" y="-150" name="b.U0740"/>
  <anchor x="375" y="-150" name="below"/>
  <anchor x="375" y="-165" name="belowleft"/>
  <outline>
    <contour>
      <point x="0" y="0" type="line"/>
      <point x="632" y="0" type="line"/>
      <point x="632" y="158" type="line"/>
      <point x="598" y="173"/>
      <point x="567" y="215"/>
      <point x="539" y="285" type="curve" smooth="yes"/>
      <point x="518" y="337"/>
      <point x="502" y="389"/>
      <point x="493" y="442" type="curve"/>
      <point x="529" y="552" type="line" smooth="yes"/>
      <point x="534" y="569"/>
      <point x="537" y="580"/>
      <point x="537" y="585" type="curve" smooth="yes"/>
      <point x="537" y="595"/>
      <point x="529" y="600"/>
      <point x="512" y="600" type="curve" smooth="yes"/>
      <point x="331" y="600" type="line" smooth="yes"/>
      <point x="313" y="600"/>
      <point x="301" y="591"/>
      <point x="294" y="572" type="curve" smooth="yes"/>
      <point x="264" y="479" type="line" smooth="yes"/>
      <point x="260" y="466"/>
      <point x="258" y="457"/>
      <point x="258" y="453" type="curve" smooth="yes"/>
      <point x="258" y="443"/>
      <point x="264" y="438"/>
      <point x="276" y="438" type="curve" smooth="yes"/>
      <point x="407" y="438" type="line"/>
      <point x="407" y="158" type="line"/>
      <point x="0" y="158" type="line"/>
    </contour>
  </outline>
</glyph>
<glyph name="nun-syriac.medi" format="2">
  <advance width="683"/>
  <anchor x="405" y="735" name="above"/>
  <anchor x="390" y="720" name="aboveleft"/>
  <anchor x="345" y="-135" name="b.U0740"/>
  <anchor x="390" y="-165" name="below"/>
  <anchor x="390" y="-150" name="belowleft"/>
  <outline>
    <contour>
      <point x="0" y="0" type="line"/>
      <point x="328" y="0" type="line" smooth="yes"/>
      <point x="358" y="0"/>
      <point x="379" y="3"/>
      <point x="390" y="10" type="curve" smooth="yes"/>
      <point x="396" y="14"/>
      <point x="408" y="26"/>
      <point x="426" y="46" type="curve"/>
      <point x="454" y="15"/>
      <point x="493" y="0"/>
      <point x="544" y="0" type="curve" smooth="yes"/>
      <point x="683" y="0" type="line"/>
      <point x="683" y="158" type="line"/>
      <point x="651" y="158" type="line" smooth="yes"/>
      <point x="619" y="158"/>
      <point x="589" y="185"/>
      <point x="560" y="238" type="curve" smooth="yes"/>
      <point x="529" y="297"/>
      <point x="506" y="365"/>
      <point x="493" y="442" type="curve"/>
      <point x="529" y="552" type="line" smooth="yes"/>
      <point x="534" y="569"/>
      <point x="537" y="580"/>
      <point x="537" y="585" type="curve" smooth="yes"/>
      <point x="537" y="595"/>
      <point x="529" y="600"/>
      <point x="512" y="600" type="curve" smooth="yes"/>
      <point x="331" y="600" type="line" smooth="yes"/>
      <point x="313" y="600"/>
      <point x="301" y="591"/>
      <point x="294" y="572" type="curve" smooth="yes"/>
      <point x="264" y="479" type="line" smooth="yes"/>
      <point x="260" y="466"/>
      <point x="258" y="457"/>
      <point x="258" y="453" type="curve" smooth="yes"/>
      <point x="258" y="443"/>
      <point x="264" y="438"/>
      <point x="276" y="438" type="curve" smooth="yes"/>
      <point x="407" y="438" type="line"/>
      <point x="407" y="158" type="line"/>
      <point x="0" y="158" type="line"/>
    </contour>
  </outline>
</glyph>
<glyph name="pe-syriac.medi" format="2">
  <advance width="873"/>
  <anchor x="495" y="-135" name="b.U0325_3"/>
  <anchor x="510" y="-165" name="b.U0331_2"/>
  <anchor x="540" y="-150" name="b.U0740"/>
  <anchor x="495" y="1005" name="m.U030a_1"/>
  <anchor x="465" y="990" name="t.U0656"/>
  <outline>
    <contour>
      <point x="0" y="0" type="line"/>
      <point x="815" y="0" type="line"/>
      <point x="815" y="158" type="line" smooth="yes"/>
      <point x="815" y="162"/>
      <point x="797" y="230"/>
      <point x="760" y="363" type="curve" smooth="yes"/>
      <point x="718" y="513"/>
      <point x="688" y="637"/>
      <point x="670" y="735" type="curve" smooth="yes"/>
      <point x="661" y="784"/>
      <point x="657" y="832"/>
      <point x="657" y="878" type="curve" smooth="yes"/>
      <point x="657" y="909"/>
      <point x="655" y="924"/>
      <point x="650" y="924" type="curve" smooth="yes"/>
      <point x="646" y="924"/>
      <point x="631" y="915"/>
      <point x="606" y="896" type="curve" smooth="yes"/>
      <point x="577" y="875"/>
      <point x="546" y="859"/>
      <point x="514" y="850" type="curve" smooth="yes"/>
      <point x="352" y="801" type="line" smooth="yes"/>
      <point x="237" y="767"/>
      <point x="180" y="700"/>
      <point x="180" y="600" type="curve" smooth="yes"/>
      <point x="180" y="504"/>
      <point x="211" y="439"/>
      <point x="272" y="405" type="curve" smooth="yes"/>
      <point x="317" y="380"/>
      <point x="390" y="367"/>
      <point x="491" y="367" type="curve" smooth="yes"/>
      <point x="603" y="367" type="line"/>
      <point x="635" y="221" type="line"/>
      <point x="635" y="179"/>
      <point x="628" y="158"/>
      <point x="613" y="158" type="curve" smooth="yes"/>
      <point x="0" y="158" type="line"/>
    </contour>
    <contour>
      <point x="473" y="468" type="line" smooth="yes"/>
      <point x="426" y="468"/>
      <point x="394" y="474"/>
      <point x="376" y="486" type="curve" smooth="yes"/>
      <point x="351" y="503"/>
      <point x="338" y="535"/>
      <point x="338" y="583" type="curve" smooth="yes"/>
      <point x="338" y="630"/>
      <point x="359" y="663"/>
      <point x="402" y="682" type="curve" smooth="yes"/>
      <point x="417" y="688"/>
      <point x="458" y="697"/>
      <point x="527" y="708" type="curve"/>
      <point x="579" y="468" type="line"/>
    </contour>
  </outline>
</glyph>
<glyph name="period.latn" format="2">
  <advance width="360"/>
  <note>
period
</note>
  <outline>
    <contour>
      <point x="179" y="-14" type="curve" smooth="yes"/>
      <point x="241" y="-14"/>
      <point x="287" y="30"/>
      <point x="287" y="90" type="curve" smooth="yes"/>
      <point x="287" y="150"/>
      <point x="241" y="195"/>
      <point x="179" y="195" type="curve" smooth="yes"/>
      <point x="119" y="195"/>
      <point x="73" y="150"/>
      <point x="73" y="90" type="curve" smooth="yes"/>
      <point x="73" y="30"/>
      <point x="119" y="-14"/>
    </contour>
  </outline>
</glyph>
<glyph name="qaph-syriac.init" format="2">
  <advance width="870"/>
  <anchor x="510" y="-135" name="b.U0325_3"/>
  <anchor x="510" y="-150" name="b.U0331_2"/>
  <anchor x="525" y="-150" name="b.U0740"/>
  <anchor x="525" y="750" name="m.U030a_1"/>
  <anchor x="495" y="750" name="t.U0656"/>
  <outline>
    <contour>
      <point x="0" y="0" type="line"/>
      <point x="132" y="0" type="line" smooth="yes"/>
      <point x="168" y="0"/>
      <point x="197" y="32"/>
      <point x="220" y="97" type="curve"/>
      <point x="259" y="32"/>
      <point x="309" y="0"/>
      <point x="372" y="0" type="curve" smooth="yes"/>
      <point x="724" y="0" type="line" smooth="yes"/>
      <point x="784" y="0"/>
      <point x="814" y="127"/>
      <point x="814" y="382" type="curve" smooth="yes"/>
      <point x="814" y="447"/>
      <point x="807" y="513"/>
      <point x="793" y="578" type="curve" smooth="yes"/>
      <point x="780" y="639"/>
      <point x="768" y="669"/>
      <point x="758" y="669" type="curve" smooth="yes"/>
      <point x="751" y="669"/>
      <point x="743" y="658"/>
      <point x="735" y="635" type="curve" smooth="yes"/>
      <point x="726" y="612"/>
      <point x="700" y="600"/>
      <point x="656" y="600" type="curve" smooth="yes"/>
      <point x="350" y="600" type="line" smooth="yes"/>
      <point x="306" y="600"/>
      <point x="280" y="612"/>
      <point x="272" y="635" type="curve" smooth="yes"/>
      <point x="263" y="658"/>
      <point x="255" y="669"/>
      <point x="248" y="669" type="curve" smooth="yes"/>
      <point x="238" y="669"/>
      <point x="226" y="639"/>
      <point x="213" y="578" type="curve" smooth="yes"/>
      <point x="199" y="513"/>
      <point x="192" y="447"/>
      <point x="192" y="382" type="curve" smooth="yes"/>
      <point x="192" y="272"/>
      <point x="199" y="197"/>
      <point x="214" y="158" type="curve"/>
      <point x="0" y="158" type="line"/>
    </contour>
    <contour>
      <point x="350" y="158" type="line"/>
      <point x="350" y="442" type="line"/>
      <point x="656" y="442" type="line"/>
      <point x="656" y="158" type="line"/>
    </contour>
  </outline>
</glyph>
<glyph name="qaph-syriac.medi" format="2">
  <advance width="879"/>
  <anchor x="480" y="750" name="above"/>
  <anchor x="480" y="750" name="aboveleft"/>
  <anchor x="495" y="-120" name="b.U0325_3"/>
  <anchor x="540" y="-150" name="b.U0740"/>
  <anchor x="510" y="-120" name="below"/>
  <outline>
    <contour>
      <point x="0" y="0" type="line"/>
      <point x="120" y="0" type="line" smooth="yes"/>
      <point x="156" y="0"/>
      <point x="185" y="32"/>
      <point x="208" y="97" type="curve"/>
      <point x="247" y="32"/>
      <point x="297" y="0"/>
      <point x="360" y="0" type="curve" smooth="yes"/>
      <point x="772" y="0" type="line"/>
      <point x="782" y="56" type="line"/>
      <point x="831" y="0" type="line"/>
      <point x="879" y="0" type="line"/>
      <point x="879" y="158" type="line"/>
      <point x="791" y="158" type="line"/>
      <point x="798" y="215"/>
      <point x="802" y="290"/>
      <point x="802" y="382" type="curve" smooth="yes"/>
      <point x="802" y="447"/>
      <point x="795" y="513"/>
      <point x="781" y="578" type="curve" smooth="yes"/>
      <point x="768" y="639"/>
      <point x="756" y="669"/>
      <point x="746" y="669" type="curve" smooth="yes"/>
      <point x="739" y="669"/>
      <point x="731" y="658"/>
      <point x="723" y="635" type="curve" smooth="yes"/>
      <point x="714" y="612"/>
      <point x="688" y="600"/>
      <point x="644" y="600" type="curve" smooth="yes"/>
      <point x="338" y="600" type="line" smooth="yes"/>
      <point x="294" y="600"/>
      <point x="268" y="612"/>
      <point x="260" y="635" type="curve" smooth="yes"/>
      <point x="251" y="658"/>
      <point x="243" y="669"/>
      <point x="236" y="669" type="curve" smooth="yes"/>
      <point x="226" y="669"/>
      <point x="214" y="639"/>
      <point x="201" y="578" type="curve" smooth="yes"/>
      <point x="187" y="513"/>
      <point x="180" y="447"/>
      <point x="180" y="382" type="curve" smooth="yes"/>
      <point x="180" y="272"/>
      <point x="187" y="197"/>
      <point x="202" y="158" type="curve"/>
      <point x="0" y="158" type="line"/>
    </contour>
    <contour>
      <point x="338" y="158" type="line"/>
      <point x="338" y="442" type="line"/>
      <point x="644" y="442" type="line"/>
      <point x="644" y="158" type="line"/>
    </contour>
  </outline>
</glyph>
<glyph name="rish-syriac.fina" format="2">
  <advance width="736"/>
  <anchor x="300" y="1035" name="above"/>
  <anchor x="315" y="1020" name="aboveleft"/>
  <anchor x="375" y="-150" name="b.U0740"/>
  <anchor x="360" y="-135" name="below"/>
  <anchor x="315" y="-135" name="belowleft"/>
  <outline>
    <contour>
      <point x="140" y="0" type="line"/>
      <point x="650" y="0" type="line"/>
      <point x="664" y="63" type="line"/>
      <point x="701" y="0" type="line"/>
      <point x="736" y="0" type="line"/>
      <point x="736" y="158" type="line"/>
      <point x="664" y="158" type="line"/>
      <point x="664" y="162" type="line" smooth="yes"/>
      <point x="666" y="459"/>
      <point x="538" y="608"/>
      <point x="280" y="608" type="curve" smooth="yes"/>
      <point x="223" y="608"/>
      <point x="175" y="596"/>
      <point x="138" y="573" type="curve"/>
      <point x="138" y="403" type="line" smooth="yes"/>
      <point x="138" y="370"/>
      <point x="143" y="354"/>
      <point x="152" y="354" type="curve" smooth="yes"/>
      <point x="150" y="354"/>
      <point x="161" y="368"/>
      <point x="184" y="395" type="curve" smooth="yes"/>
      <point x="207" y="422"/>
      <point x="243" y="438"/>
      <point x="290" y="441" type="curve" smooth="yes"/>
      <point x="350" y="446"/>
      <point x="401" y="419"/>
      <point x="444" y="362" type="curve" smooth="yes"/>
      <point x="479" y="315"/>
      <point x="496" y="272"/>
      <point x="495" y="233" type="curve" smooth="yes"/>
      <point x="492" y="158" type="line"/>
      <point x="140" y="158" type="line"/>
    </contour>
    <contour>
      <point x="241" y="767" type="line"/>
      <point x="399" y="767" type="line"/>
      <point x="399" y="925" type="line"/>
      <point x="241" y="925" type="line"/>
    </contour>
  </outline>
</glyph>
<glyph name="rish_dieresiscomb-syriac.fina" format="2">
  <advance width="736"/>
  <anchor x="360" y="1035" name="aboveLigComp_1"/>
  <anchor x="405" y="-120" name="b.U0325_3_2_ligComponent_1"/>
  <anchor x="405" y="-135" name="b.U0325_3_2_ligComponent_2"/>
  <anchor x="405" y="-120" name="b.U0331_2_2_ligComponent_1"/>
  <anchor x="405" y="-105" name="b.U0331_2_2_ligComponent_2"/>
  <anchor x="330" y="1020" name="m.U030a_1_2_ligComponent_1"/>
  <anchor x="345" y="975" name="m.U030a_1_2_ligComponent_2"/>
  <anchor x="360" y="1020" name="m.U0656_ligComponent_2"/>
  <outline>
    <contour>
      <point x="140" y="0" type="line"/>
      <point x="650" y="0" type="line"/>
      <point x="664" y="63" type="line"/>
      <point x="701" y="0" type="line"/>
      <point x="736" y="0" type="line"/>
      <point x="736" y="158" type="line"/>
      <point x="664" y="158" type="line"/>
      <point x="664" y="162" type="line" smooth="yes"/>
      <point x="666" y="459"/>
      <point x="538" y="608"/>
      <point x="280" y="608" type="curve" smooth="yes"/>
      <point x="223" y="608"/>
      <point x="175" y="596"/>
      <point x="138" y="573" type="curve"/>
      <point x="138" y="403" type="line" smooth="yes"/>
      <point x="138" y="370"/>
      <point x="143" y="354"/>
      <point x="152" y="354" type="curve" smooth="yes"/>
      <point x="150" y="354"/>
      <point x="161" y="368"/>
      <point x="184" y="395" type="curve" smooth="yes"/>
      <point x="207" y="422"/>
      <point x="243" y="438"/>
      <point x="290" y="441" type="curve" smooth="yes"/>
      <point x="350" y="446"/>
      <point x="401" y="419"/>
      <point x="444" y="362" type="curve" smooth="yes"/>
      <point x="479" y="315"/>
      <point x="496" y="272"/>
      <point x="495" y="233" type="curve" smooth="yes"/>
      <point x="492" y="158" type="line"/>
      <point x="140" y="158" type="line"/>
    </contour>
    <contour>
      <point x="140" y="767" type="line"/>
      <point x="298" y="767" type="line"/>
      <point x="298" y="925" type="line"/>
      <point x="140" y="925" type="line"/>
    </contour>
    <contour>
      <point x="383" y="767" type="line"/>
      <point x="541" y="767" type="line"/>
      <point x="541" y="925" type="line"/>
      <point x="383" y="925" type="line"/>
    </contour>
  </outline>
</glyph>
<glyph name="rish_dieresiscomb-syriac" format="2">
  <advance width="770"/>
  <anchor x="330" y="1020" name="aboveLigComp_1"/>
  <anchor x="345" y="975" name="aboveLigComp_2"/>
  <anchor x="405" y="-105" name="b.U0331_2_2_ligComponent_1"/>
  <anchor x="405" y="-120" name="b.U0331_2_2_ligComponent_2"/>
  <anchor x="375" y="-135" name="belowLigComp_1"/>
  <anchor x="375" y="-150" name="belowLigComp_2"/>
  <anchor x="315" y="1020" name="m.U030a_1_2_ligComponent_1"/>
  <anchor x="330" y="1005" name="m.U0656_ligComponent_2"/>
  <outline>
    <contour>
      <point x="140" y="0" type="line"/>
      <point x="629" y="0" type="line"/>
      <point x="652" y="51"/>
      <point x="664" y="105"/>
      <point x="664" y="162" type="curve" smooth="yes"/>
      <point x="664" y="288"/>
      <point x="631" y="393"/>
      <point x="564" y="476" type="curve" smooth="yes"/>
      <point x="493" y="564"/>
      <point x="399" y="608"/>
      <point x="280" y="608" type="curve" smooth="yes"/>
      <point x="223" y="608"/>
      <point x="175" y="596"/>
      <point x="138" y="573" type="curve"/>
      <point x="138" y="403" type="line" smooth="yes"/>
      <point x="138" y="370"/>
      <point x="143" y="354"/>
      <point x="152" y="354" type="curve" smooth="yes"/>
      <point x="155" y="354"/>
      <point x="160" y="361"/>
      <point x="168" y="376" type="curve" smooth="yes"/>
      <point x="177" y="394"/>
      <point x="189" y="408"/>
      <point x="203" y="418" type="curve" smooth="yes"/>
      <point x="224" y="433"/>
      <point x="251" y="440"/>
      <point x="286" y="440" type="curve" smooth="yes"/>
      <point x="352" y="440"/>
      <point x="406" y="414"/>
      <point x="449" y="361" type="curve" smooth="yes"/>
      <point x="475" y="330"/>
      <point x="493" y="296"/>
      <point x="502" y="260" type="curve" smooth="yes"/>
      <point x="513" y="219"/>
      <point x="515" y="185"/>
      <point x="508" y="158" type="curve"/>
      <point x="140" y="158" type="line"/>
    </contour>
    <contour>
      <point x="140" y="767" type="line"/>
      <point x="298" y="767" type="line"/>
      <point x="298" y="925" type="line"/>
      <point x="140" y="925" type="line"/>
    </contour>
    <contour>
      <point x="383" y="767" type="line"/>
      <point x="541" y="767" type="line"/>
      <point x="541" y="925" type="line"/>
      <point x="383" y="925" type="line"/>
    </contour>
  </outline>
</glyph>
<glyph name="rukkakha-syriac.square" format="2">
  <anchor x="0" y="0" name="_b.U0331_2_2"/>
  <anchor x="105" y="-15" name="_below"/>
  <anchor x="90" y="-330" name="below"/>
  <outline>
    <contour>
      <point x="13" y="-183" type="line"/>
      <point x="184" y="-183" type="line"/>
      <point x="184" y="-14" type="line"/>
      <point x="13" y="-14" type="line"/>
    </contour>
  </outline>
</glyph>
<glyph name="shin-syriac.medi" format="2">
  <advance width="809"/>
  <anchor x="450" y="750" name="above"/>
  <anchor x="450" y="735" name="aboveleft"/>
  <anchor x="465" y="-120" name="b.U0325_3"/>
  <anchor x="450" y="-135" name="b.U0740"/>
  <anchor x="465" y="-135" name="below"/>
  <outline>
    <contour>
      <point x="0" y="0" type="line"/>
      <point x="441" y="0" type="line" smooth="yes"/>
      <point x="459" y="0"/>
      <point x="479" y="37"/>
      <point x="501" y="111" type="curve"/>
      <point x="559" y="37"/>
      <point x="617" y="0"/>
      <point x="675" y="0" type="curve" smooth="yes"/>
      <point x="809" y="0" type="line"/>
      <point x="809" y="158" type="line"/>
      <point x="719" y="158" type="line" smooth="yes"/>
      <point x="584" y="158"/>
      <point x="517" y="227"/>
      <point x="517" y="364" type="curve" smooth="yes"/>
      <point x="517" y="393"/>
      <point x="519" y="419"/>
      <point x="523" y="442" type="curve"/>
      <point x="592" y="442" type="line" smooth="yes"/>
      <point x="646" y="442"/>
      <point x="684" y="448"/>
      <point x="707" y="461" type="curve" smooth="yes"/>
      <point x="744" y="482"/>
      <point x="762" y="522"/>
      <point x="762" y="583" type="curve" smooth="yes"/>
      <point x="762" y="641"/>
      <point x="754" y="670"/>
      <point x="739" y="670" type="curve" smooth="yes"/>
      <point x="737" y="670"/>
      <point x="733" y="664"/>
      <point x="728" y="652" type="curve" smooth="yes"/>
      <point x="722" y="637"/>
      <point x="711" y="626"/>
      <point x="696" y="618" type="curve" smooth="yes"/>
      <point x="673" y="606"/>
      <point x="638" y="600"/>
      <point x="592" y="600" type="curve" smooth="yes"/>
      <point x="361" y="600" type="line" smooth="yes"/>
      <point x="316" y="600"/>
      <point x="281" y="606"/>
      <point x="258" y="618" type="curve" smooth="yes"/>
      <point x="242" y="626"/>
      <point x="231" y="637"/>
      <point x="225" y="652" type="curve" smooth="yes"/>
      <point x="220" y="664"/>
      <point x="216" y="670"/>
      <point x="214" y="670" type="curve" smooth="yes"/>
      <point x="199" y="670"/>
      <point x="192" y="641"/>
      <point x="192" y="583" type="curve" smooth="yes"/>
      <point x="192" y="522"/>
      <point x="210" y="482"/>
      <point x="246" y="461" type="curve" smooth="yes"/>
      <point x="269" y="448"/>
      <point x="308" y="442"/>
      <point x="361" y="442" type="curve" smooth="yes"/>
      <point x="434" y="442" type="line"/>
      <point x="434" y="158" type="line"/>
      <point x="0" y="158" type="line"/>
    </contour>
  </outline>
</glyph>
<glyph name="slash.latn" format="2">
  <advance width="545"/>
  <note>
slash
</note>
  <outline>
    <contour>
      <point x="33" y="-252" type="line"/>
      <point x="144" y="-252" type="line"/>
      <point x="567" y="1022" type="line"/>
      <point x="456" y="1022" type="line"/>
    </contour>
  </outline>
</glyph>
<glyph name="taw-syriac.fina" format="2">
  <advance width="959"/>
  <anchor x="305" y="975" name="above"/>
  <anchor x="50" y="975" name="aboveleft"/>
  <anchor x="365" y="-150" name="below"/>
  <anchor x="50" y="-150" name="belowleft"/>
  <outline>
    <contour>
      <point x="305" y="831" type="curve" smooth="yes"/>
      <point x="294" y="831"/>
      <point x="286" y="818"/>
      <point x="275" y="793" type="curve" smooth="yes"/>
      <point x="271" y="784"/>
      <point x="50" y="198"/>
      <point x="50" y="100" type="curve" smooth="yes"/>
      <point x="50" y="-2"/>
      <point x="107" y="-18"/>
      <point x="136" y="-18" type="curve" smooth="yes"/>
      <point x="258" y="-18"/>
      <point x="319" y="92"/>
      <point x="386" y="92" type="curve" smooth="yes"/>
      <point x="443" y="92"/>
      <point x="522" y="-23"/>
      <point x="553" y="-23" type="curve" smooth="yes"/>
      <point x="565" y="-23"/>
      <point x="569" y="-16"/>
      <point x="569" y="-1" type="curve" smooth="yes"/>
      <point x="569" y="48"/>
      <point x="395" y="188"/>
      <point x="227" y="188" type="curve" smooth="yes"/>
      <point x="190" y="188"/>
      <point x="126" y="180"/>
      <point x="90" y="163" type="curve"/>
      <point x="102" y="110" type="line"/>
      <point x="286" y="682" type="line"/>
      <point x="247" y="673" type="line"/>
      <point x="342" y="579"/>
      <point x="532" y="322"/>
      <point x="677" y="164" type="curve" smooth="yes"/>
      <point x="770" y="62"/>
      <point x="806" y="0"/>
      <point x="934" y="0" type="curve" smooth="yes"/>
      <point x="979" y="0" type="line"/>
      <point x="979" y="145" type="line"/>
      <point x="946" y="145" type="line" smooth="yes"/>
      <point x="922" y="145"/>
      <point x="883" y="151"/>
      <point x="848" y="191" type="curve" smooth="yes"/>
      <point x="566" y="511"/>
      <point x="319" y="831"/>
    </contour>
  </outline>
</glyph>
<glyph name="taw_alaph-syriac.triangle" format="2">
  <advance width="924"/>
  <anchor x="690" y="825" name="aboveLigComp_1"/>
  <anchor x="360" y="975" name="aboveLigComp_2"/>
  <anchor x="840" y="-195" name="b.U0331_2_2_ligComponent_1"/>
  <anchor x="315" y="-210" name="b.U0331_2_2_ligComponent_2"/>
  <anchor x="720" y="-210" name="belowLigComp_1"/>
  <anchor x="225" y="-210" name="belowLigComp_2"/>
  <anchor x="705" y="705" name="m.U030a_1_2_ligComponent_1"/>
  <anchor x="330" y="1035" name="m.U0656_ligComponent_2"/>
  <outline>
    <contour>
      <point x="551" y="-222" type="line"/>
      <point x="755" y="70" type="line"/>
      <point x="812" y="17"/>
      <point x="863" y="-10"/>
      <point x="907" y="-10" type="curve"/>
      <point x="907" y="109" type="line" smooth="yes"/>
      <point x="907" y="118"/>
      <point x="899" y="129"/>
      <point x="883" y="143" type="curve" smooth="yes"/>
      <point x="859" y="164"/>
      <point x="840" y="184"/>
      <point x="826" y="202" type="curve" smooth="yes"/>
      <point x="663" y="417" type="line" smooth="yes"/>
      <point x="641" y="446"/>
      <point x="630" y="472"/>
      <point x="630" y="497" type="curve" smooth="yes"/>
      <point x="630" y="511"/>
      <point x="632" y="532"/>
      <point x="637" y="560" type="curve" smooth="yes"/>
      <point x="643" y="604" type="line"/>
      <point x="643" y="615"/>
      <point x="638" y="621"/>
      <point x="627" y="621" type="curve" smooth="yes"/>
      <point x="620" y="621"/>
      <point x="598" y="578"/>
      <point x="563" y="491" type="curve" smooth="yes"/>
      <point x="540" y="434"/>
      <point x="528" y="399"/>
      <point x="528" y="386" type="curve" smooth="yes"/>
      <point x="528" y="377"/>
      <point x="538" y="358"/>
      <point x="559" y="329" type="curve" smooth="yes"/>
      <point x="736" y="97" type="line"/>
      <point x="611" y="-84" type="line"/>
      <point x="345" y="261" type="line"/>
      <point x="386" y="361"/>
      <point x="412" y="427"/>
      <point x="422" y="459" type="curve" smooth="yes"/>
      <point x="446" y="533"/>
      <point x="458" y="602"/>
      <point x="458" y="666" type="curve" smooth="yes"/>
      <point x="458" y="720"/>
      <point x="451" y="771"/>
      <point x="438" y="818" type="curve" smooth="yes"/>
      <point x="419" y="885"/>
      <point x="391" y="918"/>
      <point x="353" y="918" type="curve" smooth="yes"/>
      <point x="328" y="918"/>
      <point x="302" y="900"/>
      <point x="276" y="864" type="curve" smooth="yes"/>
      <point x="252" y="831"/>
      <point x="240" y="801"/>
      <point x="240" y="775" type="curve" smooth="yes"/>
      <point x="240" y="733"/>
      <point x="255" y="706"/>
      <point x="285" y="695" type="curve"/>
      <point x="368" y="679" type="line"/>
      <point x="398" y="670"/>
      <point x="413" y="646"/>
      <point x="413" y="608" type="curve" smooth="yes"/>
      <point x="413" y="497"/>
      <point x="332" y="312"/>
      <point x="170" y="51" type="curve" smooth="yes"/>
      <point x="149" y="18"/>
      <point x="124" y="-16"/>
      <point x="94" y="-51" type="curve" smooth="yes"/>
      <point x="75" y="-74"/>
      <point x="66" y="-90"/>
      <point x="66" y="-101" type="curve" smooth="yes"/>
      <point x="66" y="-111"/>
      <point x="70" y="-116"/>
      <point x="77" y="-116" type="curve" smooth="yes"/>
      <point x="93" y="-116"/>
      <point x="127" y="-82"/>
      <point x="180" y="-13" type="curve" smooth="yes"/>
      <point x="222" y="43"/>
      <point x="252" y="87"/>
      <point x="271" y="119" type="curve"/>
    </contour>
  </outline>
</glyph>
<glyph name="teth-syriac.init" format="2">
  <advance width="1280"/>
  <anchor x="510" y="-210" name="b.U0325_3"/>
  <anchor x="465" y="-195" name="b.U0331_2"/>
  <anchor x="435" y="-180" name="b.U0740"/>
  <anchor x="780" y="585" name="m.U030a_1"/>
  <anchor x="645" y="720" name="t.U0656"/>
  <outline>
    <contour>
      <point x="928" y="-525" type="curve" smooth="yes"/>
      <point x="933" y="-525"/>
      <point x="940" y="-518"/>
      <point x="948" y="-504" type="curve" smooth="yes"/>
      <point x="1242" y="-18" type="line"/>
      <point x="1242" y="158" type="line"/>
      <point x="710" y="158" type="line"/>
      <point x="373" y="824" type="line" smooth="yes"/>
      <point x="362" y="845"/>
      <point x="357" y="867"/>
      <point x="357" y="892" type="curve" smooth="yes"/>
      <point x="357" y="915"/>
      <point x="363" y="941"/>
      <point x="374" y="971" type="curve" smooth="yes"/>
      <point x="385" y="1001"/>
      <point x="390" y="1015"/>
      <point x="390" y="1013" type="curve" smooth="yes"/>
      <point x="390" y="1018"/>
      <point x="387" y="1021"/>
      <point x="382" y="1021" type="curve" smooth="yes"/>
      <point x="377" y="1021"/>
      <point x="352" y="995"/>
      <point x="308" y="944" type="curve" smooth="yes"/>
      <point x="235" y="859"/>
      <point x="198" y="806"/>
      <point x="198" y="787" type="curve" smooth="yes"/>
      <point x="198" y="778"/>
      <point x="204" y="763"/>
      <point x="215" y="742" type="curve" smooth="yes"/>
      <point x="531" y="158" type="line"/>
      <point x="0" y="158" type="line"/>
      <point x="0" y="0" type="line"/>
      <point x="608" y="0" type="line"/>
      <point x="905" y="-499" type="line" smooth="yes"/>
      <point x="916" y="-516"/>
      <point x="923" y="-525"/>
    </contour>
    <contour>
      <point x="969" y="-346" type="line"/>
      <point x="794" y="0" type="line"/>
      <point x="1178" y="0" type="line"/>
    </contour>
  </outline>
</glyph>
<glyph name="teth-syriac.medi" format="2">
  <advance width="1236"/>
  <anchor x="660" y="705" name="above"/>
  <anchor x="555" y="-225" name="b.U0325_3"/>
  <anchor x="435" y="-180" name="b.U0740"/>
  <anchor x="510" y="-195" name="below"/>
  <anchor x="780" y="585" name="m.U030a_1"/>
  <outline>
    <contour>
      <point x="922" y="-525" type="curve" smooth="yes"/>
      <point x="927" y="-525"/>
      <point x="934" y="-518"/>
      <point x="942" y="-504" type="curve" smooth="yes"/>
      <point x="1236" y="-18" type="line"/>
      <point x="1236" y="158" type="line"/>
      <point x="704" y="158" type="line"/>
      <point x="367" y="824" type="line" smooth="yes"/>
      <point x="356" y="845"/>
      <point x="351" y="867"/>
      <point x="351" y="892" type="curve" smooth="yes"/>
      <point x="351" y="915"/>
      <point x="357" y="941"/>
      <point x="368" y="971" type="curve" smooth="yes"/>
      <point x="379" y="1001"/>
      <point x="384" y="1015"/>
      <point x="384" y="1013" type="curve" smooth="yes"/>
      <point x="384" y="1018"/>
      <point x="381" y="1021"/>
      <point x="376" y="1021" type="curve" smooth="yes"/>
      <point x="371" y="1021"/>
      <point x="346" y="995"/>
      <point x="302" y="944" type="curve" smooth="yes"/>
      <point x="229" y="859"/>
      <point x="192" y="806"/>
      <point x="192" y="787" type="curve" smooth="yes"/>
      <point x="192" y="778"/>
      <point x="198" y="763"/>
      <point x="209" y="742" type="curve" smooth="yes"/>
      <point x="525" y="158" type="line"/>
      <point x="0" y="158" type="line"/>
      <point x="0" y="0" type="line"/>
      <point x="602" y="0" type="line"/>
      <point x="899" y="-499" type="line" smooth="yes"/>
      <point x="910" y="-516"/>
      <point x="917" y="-525"/>
    </contour>
    <contour>
      <point x="963" y="-346" type="line"/>
      <point x="788" y="0" type="line"/>
      <point x="1172" y="0" type="line"/>
    </contour>
  </outline>
</glyph>
<glyph name="tethGarshuni-syriac.init" format="2">
  <advance width="1183"/>
  <anchor x="540" y="-225" name="b.U0325_3"/>
  <anchor x="420" y="-225" name="b.U0331_2"/>
  <anchor x="420" y="-180" name="b.U0740"/>
  <anchor x="660" y="660" name="m.U030a_1"/>
  <anchor x="720" y="690" name="t.U0656"/>
  <outline>
    <contour>
      <point x="852" y="-525" type="curve" smooth="yes"/>
      <point x="857" y="-525"/>
      <point x="864" y="-518"/>
      <point x="872" y="-504" type="curve" smooth="yes"/>
      <point x="1166" y="-18" type="line"/>
      <point x="1166" y="158" type="line"/>
      <point x="634" y="158" type="line"/>
      <point x="297" y="824" type="line" smooth="yes"/>
      <point x="286" y="845"/>
      <point x="281" y="867"/>
      <point x="281" y="892" type="curve" smooth="yes"/>
      <point x="281" y="915"/>
      <point x="287" y="941"/>
      <point x="298" y="971" type="curve" smooth="yes"/>
      <point x="309" y="1001"/>
      <point x="314" y="1015"/>
      <point x="314" y="1013" type="curve" smooth="yes"/>
      <point x="314" y="1018"/>
      <point x="311" y="1021"/>
      <point x="306" y="1021" type="curve" smooth="yes"/>
      <point x="301" y="1021"/>
      <point x="276" y="995"/>
      <point x="232" y="944" type="curve" smooth="yes"/>
      <point x="159" y="859"/>
      <point x="122" y="806"/>
      <point x="122" y="787" type="curve" smooth="yes"/>
      <point x="122" y="778"/>
      <point x="128" y="763"/>
      <point x="139" y="742" type="curve" smooth="yes"/>
      <point x="455" y="158" type="line"/>
      <point x="-70" y="158" type="line"/>
      <point x="-70" y="0" type="line"/>
      <point x="532" y="0" type="line"/>
      <point x="829" y="-499" type="line" smooth="yes"/>
      <point x="840" y="-516"/>
      <point x="847" y="-525"/>
    </contour>
    <contour>
      <point x="893" y="-346" type="line"/>
      <point x="718" y="0" type="line"/>
      <point x="1102" y="0" type="line"/>
    </contour>
    <contour>
      <point x="905" y="-185" type="curve" smooth="yes"/>
      <point x="946" y="-185"/>
      <point x="979" y="-151"/>
      <point x="979" y="-111" type="curve" smooth="yes"/>
      <point x="979" y="-70"/>
      <point x="946" y="-36"/>
      <point x="905" y="-36" type="curve" smooth="yes"/>
      <point x="864" y="-36"/>
      <point x="831" y="-70"/>
      <point x="831" y="-111" type="curve" smooth="yes"/>
      <point x="831" y="-151"/>
      <point x="864" y="-185"/>
    </contour>
  </outline>
</glyph>
<glyph name="two.latn" format="2">
  <advance width="715"/>
  <note>
two
</note>
  <outline>
    <contour>
      <point x="80" y="-2" type="line"/>
      <point x="115" y="0"/>
      <point x="150" y="0"/>
      <point x="185" y="0" type="curve" smooth="yes"/>
      <point x="466" y="0" type="line" smooth="yes"/>
      <point x="516" y="0"/>
      <point x="584" y="-1"/>
      <point x="632" y="-5" type="curve"/>
      <point x="670" y="231" type="line"/>
      <point x="599" y="238" type="line"/>
      <point x="554" y="129" type="line"/>
      <point x="535" y="125"/>
      <point x="517" y="124"/>
      <point x="490" y="124" type="curve" smooth="yes"/>
      <point x="219" y="124" type="line"/>
      <point x="218" y="104" type="line"/>
      <point x="459" y="266"/>
      <point x="588" y="434"/>
      <point x="588" y="588" type="curve" smooth="yes"/>
      <point x="588" y="735"/>
      <point x="477" y="836"/>
      <point x="323" y="836" type="curve" smooth="yes"/>
      <point x="198" y="836"/>
      <point x="94" y="765"/>
      <point x="45" y="644" type="curve"/>
      <point x="94" y="609" type="line"/>
      <point x="139" y="680"/>
      <point x="200" y="717"/>
      <point x="273" y="717" type="curve" smooth="yes"/>
      <point x="368" y="717"/>
      <point x="426" y="653"/>
      <point x="426" y="555" type="curve" smooth="yes"/>
      <point x="426" y="412"/>
      <point x="330" y="273"/>
      <point x="75" y="57" type="curve"/>
    </contour>
  </outline>
</glyph>
<glyph name="yudh-syriac.fina" format="2">
  <advance width="785"/>
  <anchor x="435" y="510" name="above"/>
  <anchor x="420" y="510" name="aboveleft"/>
  <anchor x="435" y="-120" name="b.U0325_3"/>
  <anchor x="540" y="-150" name="b.U0740"/>
  <anchor x="435" y="-120" name="below"/>
  <outline>
    <contour>
      <point x="213" y="0" type="curve" smooth="yes"/>
      <point x="452" y="0" type="line"/>
      <point x="474" y="133" type="line"/>
      <point x="503" y="101"/>
      <point x="541" y="72"/>
      <point x="588" y="47" type="curve" smooth="yes"/>
      <point x="645" y="16"/>
      <point x="697" y="0"/>
      <point x="745" y="0" type="curve" smooth="yes"/>
      <point x="785" y="0" type="line"/>
      <point x="785" y="158" type="line"/>
      <point x="745" y="158" type="line" smooth="yes"/>
      <point x="714" y="158"/>
      <point x="657" y="189"/>
      <point x="573" y="251" type="curve" smooth="yes"/>
      <point x="512" y="296"/>
      <point x="459" y="339"/>
      <point x="416" y="379" type="curve"/>
      <point x="399" y="158" type="line"/>
      <point x="213" y="158" type="line" smooth="yes"/>
      <point x="168" y="158"/>
      <point x="131" y="169"/>
      <point x="103" y="191" type="curve" smooth="yes"/>
      <point x="84" y="205"/>
      <point x="69" y="225"/>
      <point x="57" y="251" type="curve" smooth="yes"/>
      <point x="47" y="273"/>
      <point x="41" y="284"/>
      <point x="40" y="284" type="curve" smooth="yes"/>
      <point x="22" y="284"/>
      <point x="13" y="256"/>
      <point x="13" y="199" type="curve" smooth="yes"/>
      <point x="13" y="112"/>
      <point x="36" y="54"/>
      <point x="83" y="25" type="curve" smooth="yes"/>
      <point x="110" y="8"/>
      <point x="153" y="0"/>
    </contour>
  </outline>
</glyph>
<glyph name="yudh-syriac.init" format="2">
  <advance width="658"/>
  <anchor x="255" y="495" name="above"/>
  <anchor x="270" y="480" name="aboveleft"/>
  <anchor x="330" y="-150" name="b.U0740"/>
  <anchor x="315" y="-135" name="below"/>
  <anchor x="300" y="-120" name="belowleft"/>
  <outline>
    <contour>
      <point x="600" y="-12" type="curve"/>
      <point x="600" y="126" type="line" smooth="yes"/>
      <point x="600" y="146"/>
      <point x="555" y="170"/>
      <point x="520" y="191" type="curve"/>
      <point x="410" y="265"/>
      <point x="328" y="328"/>
      <point x="273" y="379" type="curve"/>
      <point x="256" y="158" type="line"/>
      <point x="0" y="158" type="line"/>
      <point x="0" y="0" type="line"/>
      <point x="308" y="0" type="line"/>
      <point x="332" y="131" type="line"/>
      <point x="374" y="85"/>
      <point x="463" y="37"/>
    </contour>
  </outline>
</glyph>
<glyph name="yudh-syriac.medi" format="2">
  <advance width="642"/>
  <anchor x="300" y="510" name="above"/>
  <anchor x="285" y="465" name="aboveleft"/>
  <anchor x="285" y="-150" name="b.U0740"/>
  <anchor x="315" y="-120" name="below"/>
  <anchor x="315" y="-135" name="belowleft"/>
  <outline>
    <contour>
      <point x="0" y="0" type="line"/>
      <point x="308" y="0" type="line"/>
      <point x="336" y="146" type="line"/>
      <point x="426" y="49"/>
      <point x="515" y="0"/>
      <point x="602" y="0" type="curve" smooth="yes"/>
      <point x="642" y="0" type="line"/>
      <point x="642" y="158" type="line"/>
      <point x="602" y="158" type="line" smooth="yes"/>
      <point x="571" y="158"/>
      <point x="514" y="189"/>
      <point x="430" y="251" type="curve" smooth="yes"/>
      <point x="368" y="296"/>
      <point x="316" y="339"/>
      <point x="273" y="379" type="curve"/>
      <point x="256" y="158" type="line"/>
      <point x="0" y="158" type="line"/>
    </contour>
  </outline>
</glyph>
<glyph name="yudhhe-syriac.fina" format="2">
  <advance width="1509"/>
  <anchor x="1185" y="660" name="above"/>
  <anchor x="1665" y="-135" name="b.U0325_3"/>
  <anchor x="1500" y="-210" name="b.U0740"/>
  <anchor x="1290" y="-195" name="below"/>
  <anchor x="1890" y="555" name="m.U030a_1"/>
  <outline>
    <contour>
      <point x="816" y="-148" type="curve" smooth="yes"/>
      <point x="824" y="-148"/>
      <point x="828" y="-138"/>
      <point x="828" y="-117" type="curve" smooth="yes"/>
      <point x="827" y="0" type="line"/>
      <point x="1130" y="-2" type="line"/>
      <point x="1138" y="156" type="line"/>
      <point x="1171" y="121"/>
      <point x="1211" y="88"/>
      <point x="1259" y="57" type="curve" smooth="yes"/>
      <point x="1322" y="18"/>
      <point x="1376" y="-2"/>
      <point x="1423" y="-2" type="curve" smooth="yes"/>
      <point x="1463" y="-2" type="line"/>
      <point x="1446" y="131" type="line"/>
      <point x="1423" y="156" type="line" smooth="yes"/>
      <point x="1406" y="175"/>
      <point x="1351" y="212"/>
      <point x="1259" y="268" type="curve" smooth="yes"/>
      <point x="1164" y="327"/>
      <point x="1109" y="363"/>
      <point x="1094" y="377" type="curve"/>
      <point x="1079" y="159" type="line"/>
      <point x="963" y="158" type="line"/>
      <point x="825" y="158" type="line"/>
      <point x="820" y="616" type="line" smooth="yes"/>
      <point x="820" y="636"/>
      <point x="817" y="646"/>
      <point x="810" y="646" type="curve" smooth="yes"/>
      <point x="807" y="646"/>
      <point x="797" y="638"/>
      <point x="779" y="623" type="curve" smooth="yes"/>
      <point x="761" y="608"/>
      <point x="738" y="600"/>
      <point x="711" y="600" type="curve" smooth="yes"/>
      <point x="275" y="600" type="line" smooth="yes"/>
      <point x="212" y="600"/>
      <point x="158" y="564"/>
      <point x="115" y="491" type="curve" smooth="yes"/>
      <point x="78" y="429"/>
      <point x="59" y="365"/>
      <point x="59" y="298" type="curve" smooth="yes"/>
      <point x="59" y="205"/>
      <point x="87" y="130"/>
      <point x="143" y="74" type="curve" smooth="yes"/>
      <point x="197" y="19"/>
      <point x="268" y="-8"/>
      <point x="355" y="-8" type="curve" smooth="yes"/>
      <point x="474" y="-8"/>
      <point x="553" y="40"/>
      <point x="592" y="137" type="curve" smooth="yes"/>
      <point x="615" y="195"/>
      <point x="627" y="297"/>
      <point x="627" y="442" type="curve"/>
      <point x="754" y="442" type="line"/>
      <point x="800" y="-118" type="line" smooth="yes"/>
      <point x="802" y="-138"/>
      <point x="807" y="-148"/>
    </contour>
    <contour>
      <point x="355" y="-220" type="curve" smooth="yes"/>
      <point x="392" y="-220"/>
      <point x="422" y="-189"/>
      <point x="422" y="-152" type="curve" smooth="yes"/>
      <point x="422" y="-115"/>
      <point x="392" y="-84"/>
      <point x="355" y="-84" type="curve" smooth="yes"/>
      <point x="316" y="-84"/>
      <point x="287" y="-115"/>
      <point x="287" y="-152" type="curve" smooth="yes"/>
      <point x="287" y="-189"/>
      <point x="316" y="-220"/>
    </contour>
    <contour>
      <point x="244" y="694" type="curve" smooth="yes"/>
      <point x="281" y="694"/>
      <point x="312" y="723"/>
      <point x="312" y="762" type="curve" smooth="yes"/>
      <point x="312" y="799"/>
      <point x="281" y="829"/>
      <point x="244" y="829" type="curve" smooth="yes"/>
      <point x="207" y="829"/>
      <point x="176" y="799"/>
      <point x="176" y="762" type="curve" smooth="yes"/>
      <point x="176" y="723"/>
      <point x="207" y="694"/>
    </contour>
    <contour>
      <point x="354" y="150" type="curve" smooth="yes"/>
      <point x="310" y="150"/>
      <point x="272" y="170"/>
      <point x="239" y="209" type="curve" smooth="yes"/>
      <point x="208" y="246"/>
      <point x="193" y="286"/>
      <point x="193" y="329" type="curve" smooth="yes"/>
      <point x="193" y="353"/>
      <point x="201" y="377"/>
      <point x="216" y="401" type="curve" smooth="yes"/>
      <point x="233" y="428"/>
      <point x="255" y="442"/>
      <point x="280" y="442" type="curve" smooth="yes"/>
      <point x="516" y="442" type="line"/>
      <point x="522" y="410"/>
      <point x="525" y="383"/>
      <point x="525" y="360" type="curve" smooth="yes"/>
      <point x="525" y="220"/>
      <point x="468" y="150"/>
    </contour>
    <contour>
      <point x="472" y="694" type="curve" smooth="yes"/>
      <point x="509" y="694"/>
      <point x="540" y="723"/>
      <point x="540" y="762" type="curve" smooth="yes"/>
      <point x="540" y="799"/>
      <point x="509" y="829"/>
      <point x="472" y="829" type="curve" smooth="yes"/>
      <point x="435" y="829"/>
      <point x="404" y="799"/>
      <point x="404" y="762" type="curve" smooth="yes"/>
      <point x="404" y="723"/>
      <point x="435" y="694"/>
    </contour>
    <contour>
      <point x="355" y="898" type="curve" smooth="yes"/>
      <point x="392" y="898"/>
      <point x="422" y="929"/>
      <point x="422" y="966" type="curve" smooth="yes"/>
      <point x="422" y="1003"/>
      <point x="392" y="1034"/>
      <point x="355" y="1034" type="curve" smooth="yes"/>
      <point x="316" y="1034"/>
      <point x="287" y="1003"/>
      <point x="287" y="966" type="curve" smooth="yes"/>
      <point x="287" y="929"/>
      <point x="316" y="898"/>
    </contour>
  </outline>
</glyph>
<glyph name="zain-syriac.fina" format="2">
  <advance width="517"/>
  <anchor x="285" y="705" name="above"/>
  <anchor x="315" y="675" name="aboveleft"/>
  <anchor x="375" y="-315" name="b.U0740"/>
  <anchor x="375" y="-285" name="below"/>
  <anchor x="360" y="-315" name="belowleft"/>
  <outline>
    <contour>
      <point x="213" y="-208" type="curve" smooth="yes"/>
      <point x="232" y="-208"/>
      <point x="281" y="-147"/>
      <point x="360" y="-26" type="curve" smooth="yes"/>
      <point x="366" y="-17"/>
      <point x="371" y="-9"/>
      <point x="376" y="0" type="curve"/>
      <point x="517" y="0" type="line"/>
      <point x="517" y="158" type="line"/>
      <point x="438" y="158" type="line"/>
      <point x="447" y="198"/>
      <point x="451" y="240"/>
      <point x="451" y="283" type="curve" smooth="yes"/>
      <point x="451" y="351"/>
      <point x="440" y="409"/>
      <point x="418" y="457" type="curve" smooth="yes"/>
      <point x="388" y="522"/>
      <point x="342" y="554"/>
      <point x="280" y="554" type="curve" smooth="yes"/>
      <point x="184" y="554"/>
      <point x="117" y="472"/>
      <point x="117" y="372" type="curve" smooth="yes"/>
      <point x="117" y="300"/>
      <point x="143" y="234"/>
      <point x="194" y="173" type="curve"/>
      <point x="321" y="47" type="line"/>
      <point x="318" y="26"/>
      <point x="302" y="-8"/>
      <point x="274" y="-57" type="curve" smooth="yes"/>
      <point x="249" y="-100"/>
      <point x="231" y="-127"/>
      <point x="222" y="-136" type="curve" smooth="yes"/>
      <point x="200" y="-158"/>
      <point x="189" y="-173"/>
      <point x="189" y="-182" type="curve" smooth="yes"/>
      <point x="189" y="-199"/>
      <point x="197" y="-208"/>
    </contour>
  </outline>
</glyph>
